<svg width="17" height="13" viewBox="0 0 17 13" fill="none" xmlns="http://www.w3.org/2000/svg">
<path d="M16.0307 11L14.6307 4.3C14.4307 3.6 13.7307 3 12.9307 3H11.0307V1.8C11.0307 0.8 10.2307 0 9.23074 0H6.83074C5.83074 0 5.03074 0.8 5.03074 1.8V3H3.13074C2.33074 3 1.63074 3.6 1.43074 4.3L0.0307396 11C-0.16926 12 0.63074 13 1.73074 13H14.2307C15.4307 13 16.2307 12 16.0307 11ZM6.03074 1.8C6.03074 1.4 6.43074 1 6.83074 1H9.23074C9.63074 1 10.0307 1.4 10.0307 1.8V3H6.03074V1.8ZM11.0307 9H9.03074V11H7.03074V9H5.03074V7H7.03074V5H9.03074V7H11.0307V9Z" fill="#EC6724"/>
</svg>
