<svg width="58" height="54" viewBox="0 0 58 54" fill="none" xmlns="http://www.w3.org/2000/svg">
<path d="M49.2223 35.6611C49.193 35.6539 49.1633 35.6484 49.1333 35.6447C48.8745 35.598 48.6113 35.5551 48.3435 35.516V35.4729C49.2369 34.9297 49.9754 34.1658 50.4881 33.2546C51.0008 32.3434 51.2704 31.3156 51.2709 30.2701V30.0613C51.6067 29.9708 51.9211 29.8143 52.1957 29.601C52.4704 29.3877 52.6999 29.1219 52.8707 28.819C53.1052 28.414 53.2255 27.9531 53.219 27.4851C53.2124 27.0172 53.0791 26.5598 52.8334 26.1616C52.723 25.981 52.5916 25.8141 52.4419 25.6644V25.1593C52.4412 23.9367 52.1317 22.7341 51.5423 21.663C50.9528 20.592 50.1024 19.6871 49.07 19.0323C49.0472 18.0152 48.6271 17.0475 47.8997 16.3364C47.1722 15.6253 46.1952 15.2272 45.1779 15.2275C44.1606 15.2278 43.1839 15.6264 42.4568 16.3379C41.7298 17.0494 41.3102 18.0173 41.288 19.0344C40.2564 19.6894 39.4068 20.5941 38.818 21.6647C38.2291 22.7354 37.92 23.9374 37.9193 25.1593V25.6591C37.6048 25.9829 37.3773 26.3809 37.2579 26.8161C37.093 27.381 37.1256 27.9852 37.3502 28.5292C37.5747 29.0731 37.978 29.5243 38.4933 29.8083C38.6815 29.9144 38.8819 29.9972 39.0902 30.0547V30.2695C39.0908 31.3169 39.3614 32.3465 39.8758 33.2589C40.3903 34.1712 41.1313 34.9355 42.0272 35.478V35.5143C39.3332 35.9028 36.4889 36.7154 34.7271 39.2154C34.1728 39.0568 33.5919 38.9249 32.9872 38.814C32.9748 38.8118 32.9625 38.809 32.95 38.8073C32.6561 38.7539 32.3568 38.7053 32.052 38.6614V38.5423C33.0048 37.969 33.7931 37.1592 34.3406 36.1914C34.8881 35.2236 35.1761 34.1307 35.1766 33.0188V32.7559C35.535 32.6643 35.8711 32.501 36.1647 32.276C36.4583 32.0509 36.7032 31.7688 36.8848 31.4465C37.1298 31.0225 37.2555 30.5401 37.2484 30.0504C37.2414 29.5607 37.1019 29.0821 36.8447 28.6654C36.7265 28.4718 36.5852 28.2933 36.4239 28.1338V25.7136C36.4239 24.1298 35.7303 22.6353 34.5685 21.7155C34.0501 21.3013 33.4431 21.0123 32.7947 20.8711C32.1464 20.7299 31.4742 20.7402 30.8305 20.9012C30.3495 21.0155 29.8152 20.7761 29.3079 20.5209C27.4795 19.6053 25.4847 19.6648 23.8344 20.6838C22.9804 21.2169 22.2757 21.9579 21.7862 22.8376C21.2968 23.7173 21.0386 24.7069 21.036 25.7136V28.1198C20.6976 28.4611 20.4527 28.8836 20.3249 29.3468C20.1514 29.9387 20.1847 30.572 20.4193 31.1424C20.654 31.7128 21.076 32.1862 21.6157 32.4846C21.8263 32.6038 22.0517 32.6946 22.2861 32.7548V33.0194C22.2868 34.133 22.5758 35.2275 23.1251 36.1963C23.6743 37.1651 24.4651 37.9751 25.4204 38.5475V38.6619C24.5174 38.7866 23.6239 38.9719 22.7458 39.2164C20.9862 36.7158 18.1409 35.9034 15.4449 35.5149V35.4749C16.3392 34.9319 17.0786 34.1679 17.5919 33.2563C18.1052 32.3447 18.3751 31.3163 18.3756 30.2701V30.0613C18.7116 29.9705 19.0262 29.8138 19.3011 29.6002C19.5759 29.3866 19.8055 29.1205 19.9765 28.8173C20.2096 28.4118 20.3288 27.9507 20.3215 27.483C20.3142 27.0153 20.1806 26.5582 19.9349 26.1601C19.8245 25.9796 19.6931 25.8127 19.5434 25.6632V25.1603C19.5427 23.9384 19.2336 22.7364 18.6447 21.6657C18.0558 20.5951 17.2063 19.6904 16.1747 19.0354C16.1524 18.0184 15.7329 17.0505 15.0058 16.339C14.2788 15.6275 13.3021 15.2289 12.2848 15.2286C11.2675 15.2283 10.2906 15.6264 9.56317 16.3375C8.83574 17.0486 8.41565 18.0163 8.39285 19.0333C7.36042 19.6881 6.51007 20.593 5.92065 21.6641C5.33123 22.7351 5.02183 23.9377 5.02115 25.1603V25.6616C4.70919 25.9831 4.48301 26.3778 4.36335 26.8095C4.19586 27.375 4.22669 27.9808 4.45074 28.5264C4.67479 29.0721 5.0786 29.5247 5.5952 29.8093C5.78435 29.9159 5.98589 29.9989 6.1953 30.0563V30.2703C6.19587 31.3177 6.46644 32.3473 6.98089 33.2596C7.49535 34.172 8.23631 34.9363 9.13225 35.4788V35.5157C8.86554 35.5546 8.60336 35.5974 8.3457 35.6439C8.31188 35.6479 8.27836 35.654 8.24535 35.6623C3.51642 36.5388 0.36877 38.7996 0.00114574 45.5615C-0.00613822 45.6962 0.021401 45.8306 0.0811103 45.9516C0.14082 46.0726 0.230687 46.1762 0.342054 46.2524C4.84798 49.3096 10.3539 50.5243 15.7279 49.6469C15.7836 49.8021 15.8868 49.9358 16.0227 50.0292C19.7748 52.5742 24.2043 53.9347 28.7381 53.9347C33.2718 53.9347 37.7013 52.5742 41.4534 50.0292C41.5892 49.936 41.6923 49.8025 41.7481 49.6475C47.1212 50.524 52.626 49.309 57.131 46.2524C57.2423 46.1762 57.3321 46.0726 57.3918 45.9516C57.4515 45.8307 57.479 45.6964 57.4717 45.5617C57.1071 38.7964 53.9564 36.5365 49.2223 35.6611ZM51.2709 26.7187C51.3569 26.7937 51.4309 26.8813 51.4905 26.9785C51.5895 27.1378 51.6432 27.3211 51.6455 27.5086C51.6479 27.6961 51.599 27.8807 51.5041 28.0425C51.4431 28.1478 51.3642 28.2417 51.2709 28.3198V26.7187ZM35.1769 29.1264C35.3078 29.2227 35.4184 29.3439 35.5024 29.483C35.6131 29.6609 35.673 29.8658 35.6757 30.0753C35.6783 30.2849 35.6237 30.4911 35.5175 30.6719C35.4328 30.8213 35.3166 30.9504 35.1769 31.0504V29.1264ZM18.3756 26.7215C18.4603 26.7952 18.5334 26.8815 18.5921 26.9772C18.6915 27.1365 18.7455 27.3198 18.7484 27.5075C18.7513 27.6952 18.7031 27.8802 18.6088 28.0425C18.5478 28.1479 18.4689 28.2419 18.3756 28.3202V26.7215ZM45.1813 16.8008C45.6376 16.8013 46.0837 16.9362 46.4638 17.1886C46.844 17.441 47.1414 17.7998 47.319 18.2201C45.925 17.7911 44.4341 17.7915 43.0403 18.2211C43.2183 17.8003 43.5162 17.4412 43.8969 17.1886C44.2777 16.936 44.7244 16.8012 45.1813 16.8008ZM39.0905 28.3193C38.937 28.1907 38.8249 28.0196 38.7683 27.8275C38.7117 27.6354 38.7131 27.4308 38.7723 27.2395C38.8272 27.0381 38.9375 26.856 39.0905 26.7139V28.3193ZM39.9117 24.8903H39.9102C39.8952 24.889 39.8804 24.8872 39.8653 24.8867C39.7427 24.8835 39.62 24.8887 39.4981 24.9021C39.543 23.9312 39.8356 22.9879 40.3482 22.1621C40.8607 21.3363 41.5761 20.6554 42.4262 20.1842C42.4458 20.1743 42.4648 20.1635 42.4834 20.1521C43.3087 19.7066 44.2315 19.4725 45.1693 19.4706C46.1071 19.4688 47.0308 19.6993 47.8578 20.1415C47.888 20.161 47.9195 20.1785 47.9521 20.1937C48.7977 20.666 49.5088 21.3461 50.0183 22.1698C50.5278 22.9935 50.8187 23.9335 50.8637 24.901C50.7627 24.8901 50.6612 24.8853 50.5597 24.8865C49.1863 24.5834 48.2528 23.9324 47.71 22.8956C47.655 22.7905 47.5768 22.6992 47.4815 22.6286C47.3861 22.558 47.276 22.5099 47.1595 22.4879C47.0429 22.4659 46.9228 22.4706 46.8083 22.5016C46.6938 22.5327 46.5878 22.5892 46.4982 22.6671C44.644 24.2784 42.4885 25.0031 39.9117 24.8909V24.8903ZM40.6626 30.2701V26.4713C42.9711 26.4264 45.0383 25.7374 46.8263 24.4171C47.5157 25.3023 48.4776 25.929 49.6993 26.2884V30.2698C49.6985 31.0988 49.4699 31.9117 49.0383 32.6196C48.6067 33.3275 47.9888 33.9031 47.2522 34.2835C47.2207 34.2971 47.1901 34.3128 47.1606 34.3305C46.5485 34.6294 45.8767 34.7859 45.1955 34.7882C44.5143 34.7905 43.8415 34.6385 43.2274 34.3436C43.1893 34.3198 43.1493 34.2993 43.1077 34.2823C42.3716 33.9017 41.7543 33.3263 41.3231 32.6187C40.8919 31.9111 40.6634 31.0987 40.6626 30.2701ZM47.874 37.0389L45.187 42.715L42.4972 37.0378C42.606 37.0228 42.7162 37.0083 42.8278 36.9944C42.9617 36.9778 43.0891 36.9269 43.1976 36.8468C43.3062 36.7666 43.3922 36.6598 43.4476 36.5368C43.5038 36.4108 43.5446 36.2785 43.569 36.1428C44.627 36.4346 45.7443 36.4337 46.8019 36.1402C46.8261 36.2768 46.867 36.41 46.9235 36.5368C46.9789 36.6598 47.0649 36.7666 47.1735 36.8468C47.282 36.9269 47.4094 36.9778 47.5433 36.9944C47.6562 37.008 47.7644 37.0234 47.874 37.0384V37.0389ZM35.2976 46.7719C35.4309 46.7715 35.5613 46.8106 35.6723 46.8843C35.7833 46.958 35.87 47.0629 35.9213 47.1859C35.9726 47.3089 35.9863 47.4443 35.9607 47.5751C35.935 47.7058 35.8712 47.826 35.7772 47.9205C35.6832 48.0149 35.5633 48.0794 35.4326 48.1056C35.302 48.1319 35.1665 48.1189 35.0433 48.0681C34.9201 48.0174 34.8147 47.9313 34.7405 47.8206C34.6662 47.7099 34.6265 47.5798 34.6263 47.4465C34.6264 47.2682 34.6971 47.0972 34.8229 46.9708C34.9487 46.8444 35.1193 46.7729 35.2976 46.7719ZM22.2866 31.0516C22.0842 30.9149 21.9312 30.7165 21.8505 30.486C21.7697 30.2555 21.7654 30.0051 21.8382 29.7719C21.9022 29.5384 22.0331 29.3288 22.2147 29.1687C22.2395 29.1543 22.2635 29.1386 22.2866 29.1215V31.0516ZM22.6081 27.3516V25.7136C22.6097 24.9747 22.7989 24.2484 23.1579 23.6026C23.5168 22.9568 24.0338 22.4127 24.6603 22.0212C25.8538 21.2841 27.2545 21.2506 28.603 21.9259C29.1312 22.1916 30.114 22.6864 31.1919 22.431C31.605 22.3268 32.0365 22.3192 32.4529 22.4088C32.8693 22.4985 33.2595 22.683 33.593 22.948C34.3815 23.5723 34.8521 24.6061 34.8521 25.7136V27.3558C34.6957 27.3338 34.5377 27.3254 34.3799 27.3306C34.3652 27.3306 34.3508 27.3332 34.3363 27.3345C31.5805 27.454 29.2775 26.675 27.2916 24.9513C27.2021 24.8735 27.096 24.817 26.9815 24.786C26.867 24.7551 26.747 24.7504 26.6304 24.7725C26.5138 24.7945 26.4038 24.8427 26.3085 24.9133C26.2132 24.984 26.1351 25.0753 26.0801 25.1804C25.4938 26.3004 24.4831 27.0038 22.9944 27.3309C22.8653 27.329 22.7362 27.3359 22.6081 27.3516ZM23.8585 33.0194V28.7339C25.1886 28.3494 26.2293 27.6701 26.9663 26.7059C28.8891 28.1368 31.1156 28.8784 33.6049 28.9172V33.0198C33.6042 33.9134 33.3581 34.7896 32.8935 35.5529C32.4288 36.3162 31.7635 36.9372 30.97 37.3482C30.9295 37.3649 30.8904 37.3849 30.8533 37.4082C30.1945 37.7271 29.4722 37.8934 28.7403 37.8946C28.0083 37.8957 27.2856 37.7318 26.6258 37.4149C26.585 37.3891 26.5419 37.3672 26.4971 37.3492C25.7027 36.9386 25.0365 36.3176 24.5712 35.554C24.1058 34.7904 23.8593 33.9136 23.8585 33.0194ZM31.6854 40.1979L28.7364 46.4216L25.7899 40.1974C25.9294 40.178 26.0706 40.1589 26.2147 40.1413C26.3482 40.1246 26.4752 40.074 26.5835 39.9942C26.6918 39.9145 26.7778 39.8082 26.8333 39.6856C26.8996 39.537 26.9451 39.38 26.9687 39.219C28.1243 39.5497 29.3495 39.5489 30.5046 39.2167C30.5276 39.3782 30.5726 39.5358 30.6385 39.6851C30.694 39.8078 30.78 39.9142 30.8883 39.994C30.9967 40.0739 31.1238 40.1246 31.2574 40.1413C31.4031 40.159 31.5451 40.1782 31.6854 40.1979ZM12.2825 16.8008C12.7394 16.8011 13.1861 16.936 13.5668 17.1885C13.9476 17.4411 14.2455 17.8002 14.4235 18.221C13.0296 17.7915 11.5388 17.7912 10.1448 18.2201C10.3223 17.7998 10.6198 17.441 10.9999 17.1886C11.3801 16.9362 11.8262 16.8013 12.2825 16.8008ZM6.1953 28.3216C6.04049 28.1928 5.92748 28.0208 5.87064 27.8276C5.81379 27.6344 5.81568 27.4286 5.87606 27.2365C5.93172 27.0359 6.04228 26.8547 6.1953 26.7135V28.3216ZM7.04145 24.8909C7.02574 24.8894 7.01002 24.8874 6.99397 24.8869C6.86233 24.8824 6.73054 24.8875 6.59963 24.902C6.64441 23.9344 6.93527 22.9943 7.44469 22.1704C7.95411 21.3466 8.66526 20.6663 9.51087 20.194C9.54376 20.1786 9.57553 20.161 9.60595 20.1412C10.433 19.6992 11.3566 19.4689 12.2943 19.4708C13.232 19.4728 14.1546 19.707 14.9798 20.1524C14.9985 20.1636 15.0176 20.1749 15.0374 20.1847C15.8872 20.6558 16.6024 21.3366 17.1149 22.1621C17.6274 22.9877 17.9201 23.9307 17.9652 24.9013C17.8655 24.8907 17.7652 24.8859 17.6649 24.8871C16.2893 24.584 15.3546 23.9329 14.8115 22.8961C14.7565 22.7909 14.6784 22.6995 14.583 22.6288C14.4876 22.5581 14.3774 22.51 14.2607 22.488C14.1441 22.466 14.0239 22.4707 13.9094 22.5018C13.7948 22.5329 13.6887 22.5896 13.5992 22.6675C11.7518 24.2735 9.6064 25.0017 7.04145 24.8909ZM7.76727 30.2701V26.4713C10.0743 26.4264 12.1399 25.7374 13.9279 24.4171C14.6178 25.3026 15.5807 25.9293 16.804 26.2888V30.2698C16.8032 31.0973 16.5754 31.9088 16.1453 32.6158C15.7151 33.3229 15.0992 33.8983 14.3646 34.2794C14.323 34.2964 14.2829 34.3171 14.2447 34.341C13.6345 34.6349 12.966 34.7878 12.2887 34.7882C11.6113 34.7887 10.9426 34.6367 10.332 34.3436C10.2939 34.3197 10.2539 34.2992 10.2122 34.2823C9.47621 33.9017 8.85892 33.3262 8.42774 32.6187C7.99657 31.9111 7.7681 31.0987 7.76727 30.2701ZM14.9788 37.0373L12.2889 42.7151L9.59944 37.0388C9.70978 37.0236 9.81901 37.0081 9.93249 36.9939C10.0691 36.9769 10.1988 36.9243 10.3087 36.8414C10.4186 36.7586 10.5048 36.6483 10.5586 36.5216C10.6102 36.3995 10.6481 36.2721 10.6717 36.1416C11.7302 36.434 12.8482 36.4333 13.9064 36.1397C13.9312 36.2765 13.9723 36.4098 14.0288 36.5368C14.0841 36.6597 14.1702 36.7663 14.2787 36.8464C14.3872 36.9264 14.5145 36.9772 14.6483 36.9939C14.76 37.0079 14.8702 37.0223 14.9788 37.0373ZM15.7901 48.0424C10.871 48.9285 5.79889 47.9134 1.59961 45.2025C1.8139 42.3618 2.56441 40.4391 3.94645 39.1746C4.89408 38.3073 6.17902 37.7119 7.992 37.3177L11.5785 44.888C11.6422 45.0225 11.7427 45.1362 11.8685 45.2158C11.9942 45.2954 12.14 45.3377 12.2888 45.3377C12.4376 45.3377 12.5834 45.2954 12.7092 45.2158C12.8349 45.1362 12.9354 45.0225 12.9991 44.888L16.5861 37.3167C18.7688 37.7899 20.207 38.5581 21.1932 39.7669C18.2678 41.0342 16.3196 43.4111 15.7901 48.0424ZM17.2798 48.9795C17.5053 45.9179 18.3113 43.8461 19.8015 42.4821C20.2778 42.051 20.8122 41.6891 21.3892 41.4069V44.1017C20.8887 44.2676 20.4531 44.5868 20.1441 45.0141C19.8352 45.4414 19.6685 45.9551 19.6678 46.4824V48.3884C19.6678 48.5968 19.7506 48.7967 19.898 48.944C20.0454 49.0914 20.2452 49.1742 20.4536 49.1742C20.662 49.1742 20.8619 49.0914 21.0092 48.944C21.1566 48.7967 21.2394 48.5968 21.2394 48.3884V46.4824C21.2426 46.2353 21.3421 45.9992 21.5169 45.8244C21.6916 45.6497 21.9277 45.5501 22.1748 45.5469C22.4228 45.5471 22.6606 45.6458 22.836 45.8212C23.0114 45.9966 23.11 46.2343 23.1103 46.4824V48.3884C23.1103 48.5968 23.1931 48.7967 23.3404 48.944C23.4878 49.0914 23.6876 49.1742 23.896 49.1742C24.1044 49.1742 24.3043 49.0914 24.4516 48.944C24.599 48.7967 24.6818 48.5968 24.6818 48.3884V46.4824C24.6811 45.9551 24.5144 45.4414 24.2055 45.0141C23.8965 44.5868 23.4608 44.2676 22.9603 44.1017V40.7917C23.3411 40.6758 23.7486 40.5713 24.1831 40.478L28.0252 48.5938C28.0889 48.7286 28.1895 48.8425 28.3155 48.9222C28.4414 49.0019 28.5874 49.0441 28.7364 49.044C28.8852 49.044 29.0309 49.0018 29.1566 48.9224C29.2823 48.8429 29.3829 48.7293 29.4466 48.5949L33.2918 40.4792C33.7259 40.5726 34.1325 40.6768 34.5117 40.7919V45.3458C34.0185 45.53 33.6057 45.8816 33.3453 46.3391C33.0849 46.7966 32.9936 47.3311 33.0871 47.8492C33.1807 48.3672 33.4533 48.836 33.8573 49.1735C34.2613 49.5111 34.771 49.696 35.2974 49.696C35.8239 49.696 36.3336 49.5111 36.7376 49.1735C37.1415 48.836 37.4141 48.3672 37.5077 47.8492C37.6013 47.3311 37.5099 46.7966 37.2495 46.3391C36.9892 45.8816 36.5764 45.53 36.0832 45.3458V41.4058C36.6613 41.6882 37.1967 42.0505 37.6738 42.4822C39.1642 43.8459 39.9703 45.918 40.1959 48.9794C33.2854 53.4942 24.1881 53.4945 17.2798 48.9801V48.9795ZM41.6861 48.0429C41.1565 43.4109 39.2075 41.034 36.2809 39.7663C37.2687 38.5572 38.7075 37.7889 40.8899 37.3159L44.4771 44.8874C44.5408 45.0219 44.6413 45.1356 44.7671 45.2152C44.8928 45.2948 45.0386 45.3371 45.1874 45.3371C45.3362 45.3371 45.482 45.2948 45.6077 45.2152C45.7335 45.1356 45.834 45.0219 45.8977 44.8874L49.4813 37.3171C51.2948 37.7114 52.5801 38.3069 53.528 39.1743C54.9105 40.4395 55.6608 42.3623 55.8735 45.2023C51.6754 47.9133 46.6043 48.9287 41.6861 48.0429ZM23.989 12.0438H26.0508V14.1092C26.0508 14.3176 26.1336 14.5175 26.281 14.6649C26.4283 14.8122 26.6282 14.895 26.8366 14.895H30.6358C30.8442 14.895 31.0441 14.8122 31.1915 14.6649C31.3388 14.5175 31.4216 14.3176 31.4216 14.1092V12.0438H33.487C33.6954 12.0438 33.8953 11.961 34.0426 11.8137C34.19 11.6663 34.2728 11.4664 34.2728 11.2581V7.45822C34.2728 7.24983 34.19 7.04997 34.0426 6.90261C33.8953 6.75525 33.6954 6.67246 33.487 6.67246H31.4216V4.61063C31.4216 4.40223 31.3388 4.20237 31.1915 4.05501C31.0441 3.90765 30.8442 3.82486 30.6358 3.82486H26.8368C26.6284 3.82486 26.4285 3.90765 26.2812 4.05501C26.1338 4.20237 26.051 4.40223 26.051 4.61063V6.67246H23.989C23.7806 6.67246 23.5807 6.75525 23.4334 6.90261C23.286 7.04997 23.2032 7.24983 23.2032 7.45822V11.2575C23.2031 11.3607 23.2234 11.463 23.2629 11.5584C23.3023 11.6538 23.3602 11.7404 23.4332 11.8135C23.5061 11.8865 23.5928 11.9444 23.6881 11.9839C23.7835 12.0235 23.8857 12.0438 23.989 12.0438ZM24.7747 8.24455H26.8367C27.0451 8.24455 27.2449 8.16176 27.3923 8.0144C27.5397 7.86704 27.6224 7.66718 27.6224 7.45879V5.39661H29.8497V7.45822C29.8497 7.66662 29.9325 7.86648 30.0799 8.01384C30.2272 8.1612 30.4271 8.24398 30.6355 8.24398H32.7009V10.4713H30.6355C30.4271 10.4713 30.2272 10.5541 30.0799 10.7014C29.9325 10.8488 29.8497 11.0486 29.8497 11.257V13.3225H27.6228V11.257C27.6228 11.0486 27.54 10.8488 27.3926 10.7014C27.2453 10.5541 27.0454 10.4713 26.837 10.4713H24.7748L24.7747 8.24455ZM28.7364 18.7164C30.5873 18.7164 32.3966 18.1675 33.9356 17.1392C35.4745 16.111 36.674 14.6494 37.3823 12.9394C38.0906 11.2294 38.2759 9.34781 37.9148 7.5325C37.5537 5.71719 36.6624 4.04972 35.3537 2.74095C34.0449 1.43219 32.3774 0.540907 30.5621 0.179819C28.7468 -0.181269 26.8652 0.00405489 25.1552 0.712354C23.4452 1.42065 21.9837 2.62012 20.9554 4.15906C19.9271 5.69801 19.3782 7.50732 19.3782 9.35819C19.3811 11.8393 20.3679 14.2179 22.1223 15.9723C23.8767 17.7267 26.2553 18.7136 28.7364 18.7164ZM28.7364 1.57198C30.2764 1.57198 31.7818 2.02863 33.0622 2.88419C34.3427 3.73975 35.3406 4.95579 35.93 6.37854C36.5193 7.80128 36.6735 9.36683 36.373 10.8772C36.0726 12.3876 35.331 13.775 34.2421 14.8639C33.1532 15.9528 31.7658 16.6944 30.2554 16.9948C28.7451 17.2952 27.1795 17.141 25.7568 16.5517C24.334 15.9624 23.118 14.9644 22.2624 13.684C21.4069 12.4035 20.9502 10.8982 20.9502 9.35819C20.9525 7.29387 21.7736 5.31476 23.2333 3.85507C24.693 2.39537 26.6721 1.57429 28.7364 1.57198Z" fill="#0852A0"/>
</svg>
