<svg width="16" height="20" viewBox="0 0 16 20" fill="none" xmlns="http://www.w3.org/2000/svg">
<path fill-rule="evenodd" clip-rule="evenodd" d="M8 18.9997L8.708 19.7057C8.61509 19.799 8.50468 19.873 8.38309 19.9235C8.26151 19.974 8.13115 20 7.9995 20C7.86785 20 7.73749 19.974 7.61591 19.9235C7.49432 19.873 7.38391 19.799 7.291 19.7057L7.285 19.6987L7.268 19.6817L7.206 19.6187C6.85352 19.2556 6.50681 18.8869 6.166 18.5127C5.31072 17.5749 4.49146 16.6049 3.71 15.6048C2.818 14.4548 1.906 13.1548 1.213 11.8708C0.535 10.6118 0 9.24787 0 7.99988C0 3.46095 3.592 0 8 0C12.408 0 16 3.46095 16 7.99988C16 9.24787 15.465 10.6118 14.787 11.8698C14.094 13.1558 13.183 14.4548 12.29 15.6048C11.1968 17.0039 10.0298 18.3438 8.794 19.6187L8.732 19.6817L8.715 19.6987L8.709 19.7047L8 18.9997ZM8 10.9998C8.79565 10.9998 9.55871 10.6838 10.1213 10.1212C10.6839 9.55857 11 8.79552 11 7.99988C11 7.20425 10.6839 6.4412 10.1213 5.87859C9.55871 5.31599 8.79565 4.99993 8 4.99993C7.20435 4.99993 6.44129 5.31599 5.87868 5.87859C5.31607 6.4412 5 7.20425 5 7.99988C5 8.79552 5.31607 9.55857 5.87868 10.1212C6.44129 10.6838 7.20435 10.9998 8 10.9998Z" fill="#EC6724"/>
</svg>
