<svg width="199" height="62" viewBox="0 0 199 62" fill="none" xmlns="http://www.w3.org/2000/svg">
<path d="M71.5552 18.2328C69.9367 14.4794 61.2075 -0.0348694 50.8599 2.94374C59.5891 10.2095 65.7357 18.405 68.8004 27.4613C68.9381 25.9117 69.5752 22.8643 71.5552 18.2156V18.2328Z" fill="#28B1E5"/>
<path d="M69.5752 29.6822C70.746 33.4183 71.6413 39.3928 72.0717 41.4244C75.9112 20.8324 84.6404 9.22791 93.2663 3.06408C86.2416 2.46147 85.6735 2.35817 80.2672 7.09295C76.5655 10.347 71.4519 19.0418 69.5752 29.6822Z" fill="#28B1E5"/>
<path d="M71.8479 10.8294C74.5579 10.8294 76.7548 8.63246 76.7548 5.92242C76.7548 3.21238 74.5579 1.01546 71.8479 1.01546C69.1378 1.01546 66.9409 3.21238 66.9409 5.92242C66.9409 8.63246 69.1378 10.8294 71.8479 10.8294Z" fill="#28B1E5"/>
<path d="M0.0860869 42.0792L5.99165 42.062L5.94 14.6864L34.5381 44.3864L34.452 2.90967L28.5464 2.92689L28.5981 30.0959L0 0.309845L0.0860869 42.0792Z" fill="#284599"/>
<path d="M47.6756 2.89418L41.77 2.90552L41.8451 42.0061L47.7506 41.9948L47.6756 2.89418Z" fill="#284599"/>
<path d="M196.014 61.7165C195.493 61.7165 195.047 61.6514 194.675 61.5211C194.303 61.3909 194 61.2328 193.768 61.0467C193.535 60.8607 193.359 60.6746 193.238 60.4886C193.126 60.3026 193.066 60.1537 193.056 60.0421C193.047 59.9398 193.079 59.8607 193.154 59.8049C193.228 59.7491 193.303 59.7212 193.377 59.7212H194.005C194.052 59.7212 194.089 59.7305 194.117 59.7491C194.154 59.7584 194.2 59.7956 194.256 59.8607C194.377 59.991 194.512 60.1212 194.661 60.2514C194.81 60.3816 194.991 60.4886 195.205 60.5723C195.428 60.656 195.703 60.6979 196.028 60.6979C196.503 60.6979 196.893 60.6095 197.2 60.4328C197.507 60.2468 197.661 59.977 197.661 59.6235C197.661 59.391 197.596 59.2049 197.465 59.0654C197.344 58.9259 197.121 58.8003 196.796 58.6887C196.479 58.5771 196.042 58.4608 195.484 58.3399C194.926 58.2096 194.484 58.0515 194.159 57.8655C193.833 57.6701 193.6 57.4422 193.461 57.1818C193.321 56.912 193.252 56.6097 193.252 56.2748C193.252 55.9306 193.354 55.6004 193.559 55.2842C193.763 54.9586 194.061 54.6935 194.452 54.4888C194.852 54.2842 195.349 54.1819 195.945 54.1819C196.428 54.1819 196.842 54.2423 197.186 54.3633C197.53 54.4842 197.814 54.6377 198.037 54.8237C198.261 55.0004 198.428 55.1772 198.54 55.3539C198.651 55.5307 198.712 55.6795 198.721 55.8004C198.73 55.8934 198.703 55.9725 198.637 56.0376C198.572 56.0934 198.498 56.1213 198.414 56.1213H197.828C197.763 56.1213 197.707 56.1074 197.661 56.0795C197.623 56.0516 197.586 56.019 197.549 55.9818C197.456 55.8609 197.344 55.74 197.214 55.619C197.093 55.4981 196.931 55.4004 196.726 55.326C196.531 55.2423 196.27 55.2004 195.945 55.2004C195.479 55.2004 195.131 55.2981 194.898 55.4935C194.665 55.6888 194.549 55.9353 194.549 56.233C194.549 56.4097 194.6 56.5678 194.703 56.7074C194.805 56.8469 195 56.9725 195.289 57.0841C195.577 57.1957 196.005 57.3166 196.572 57.4469C197.186 57.5678 197.67 57.7306 198.023 57.9352C198.377 58.1399 198.628 58.3771 198.777 58.6468C198.926 58.9166 199 59.2282 199 59.5817C199 59.9723 198.889 60.3305 198.665 60.656C198.442 60.9816 198.107 61.2421 197.661 61.4374C197.214 61.6234 196.665 61.7165 196.014 61.7165Z" fill="#284599"/>
<path d="M184.665 61.5769C184.572 61.5769 184.493 61.549 184.427 61.4932C184.372 61.4281 184.344 61.349 184.344 61.256V54.6423C184.344 54.5493 184.372 54.4749 184.427 54.4191C184.493 54.354 184.572 54.3214 184.665 54.3214H185.32C185.413 54.3214 185.488 54.354 185.544 54.4191C185.609 54.4749 185.641 54.5493 185.641 54.6423V55.2563C185.883 54.94 186.186 54.6842 186.548 54.4888C186.92 54.2842 187.395 54.1819 187.972 54.1819C188.576 54.1819 189.088 54.3168 189.506 54.5865C189.934 54.847 190.255 55.2144 190.469 55.6888C190.692 56.1539 190.804 56.6981 190.804 57.3213V61.256C190.804 61.349 190.771 61.4281 190.706 61.4932C190.65 61.549 190.576 61.5769 190.483 61.5769H189.785C189.692 61.5769 189.613 61.549 189.548 61.4932C189.492 61.4281 189.464 61.349 189.464 61.256V57.3911C189.464 56.7399 189.306 56.233 188.99 55.8702C188.674 55.4981 188.209 55.3121 187.595 55.3121C187.018 55.3121 186.553 55.4981 186.199 55.8702C185.855 56.233 185.683 56.7399 185.683 57.3911V61.256C185.683 61.349 185.651 61.4281 185.586 61.4932C185.53 61.549 185.455 61.5769 185.362 61.5769H184.665Z" fill="#284599"/>
<path d="M178.606 61.7165C177.899 61.7165 177.308 61.5816 176.834 61.3118C176.359 61.0421 175.997 60.67 175.746 60.1956C175.494 59.7119 175.355 59.1631 175.327 58.5491C175.318 58.391 175.313 58.191 175.313 57.9492C175.313 57.698 175.318 57.498 175.327 57.3492C175.355 56.726 175.494 56.1771 175.746 55.7027C176.006 55.2283 176.373 54.8563 176.848 54.5865C177.322 54.3168 177.908 54.1819 178.606 54.1819C179.304 54.1819 179.89 54.3168 180.364 54.5865C180.838 54.8563 181.201 55.2283 181.452 55.7027C181.713 56.1771 181.857 56.726 181.885 57.3492C181.894 57.498 181.899 57.698 181.899 57.9492C181.899 58.191 181.894 58.391 181.885 58.5491C181.857 59.1631 181.717 59.7119 181.466 60.1956C181.215 60.67 180.852 61.0421 180.378 61.3118C179.904 61.5816 179.313 61.7165 178.606 61.7165ZM178.606 60.6421C179.183 60.6421 179.643 60.4607 179.987 60.0979C180.331 59.7258 180.517 59.1863 180.545 58.4794C180.555 58.3399 180.559 58.1631 180.559 57.9492C180.559 57.7352 180.555 57.5585 180.545 57.419C180.517 56.712 180.331 56.1771 179.987 55.8144C179.643 55.4423 179.183 55.2563 178.606 55.2563C178.029 55.2563 177.564 55.4423 177.211 55.8144C176.866 56.1771 176.685 56.712 176.666 57.419C176.657 57.5585 176.652 57.7352 176.652 57.9492C176.652 58.1631 176.657 58.3399 176.666 58.4794C176.685 59.1863 176.866 59.7258 177.211 60.0979C177.564 60.4607 178.029 60.6421 178.606 60.6421Z" fill="#284599"/>
<path d="M171.878 61.5771C171.785 61.5771 171.706 61.5492 171.641 61.4934C171.585 61.4283 171.557 61.3492 171.557 61.2562V54.6425C171.557 54.5495 171.585 54.475 171.641 54.4192C171.706 54.3541 171.785 54.3216 171.878 54.3216H172.548C172.641 54.3216 172.715 54.3541 172.771 54.4192C172.836 54.475 172.869 54.5495 172.869 54.6425V61.2562C172.869 61.3492 172.836 61.4283 172.771 61.4934C172.715 61.5492 172.641 61.5771 172.548 61.5771H171.878ZM171.766 52.9681C171.673 52.9681 171.594 52.9402 171.529 52.8844C171.473 52.8193 171.445 52.7402 171.445 52.6472V51.8937C171.445 51.8007 171.473 51.7217 171.529 51.6565C171.594 51.5914 171.673 51.5589 171.766 51.5589H172.645C172.738 51.5589 172.817 51.5914 172.882 51.6565C172.948 51.7217 172.98 51.8007 172.98 51.8937V52.6472C172.98 52.7402 172.948 52.8193 172.882 52.8844C172.817 52.9402 172.738 52.9681 172.645 52.9681H171.766Z" fill="#284599"/>
<path d="M168.241 61.5769C167.72 61.5769 167.297 61.4793 166.972 61.2839C166.646 61.0793 166.409 60.7956 166.26 60.4328C166.111 60.0607 166.037 59.6235 166.037 59.1212V55.4376H164.948C164.855 55.4376 164.776 55.4097 164.711 55.3539C164.655 55.2888 164.627 55.2097 164.627 55.1167V54.6423C164.627 54.5493 164.655 54.4749 164.711 54.4191C164.776 54.3539 164.855 54.3214 164.948 54.3214H166.037V51.9912C166.037 51.8982 166.065 51.8238 166.12 51.768C166.186 51.7029 166.265 51.6703 166.358 51.6703H167.013C167.106 51.6703 167.181 51.7029 167.237 51.768C167.302 51.8238 167.334 51.8982 167.334 51.9912V54.3214H169.064C169.167 54.3214 169.246 54.3539 169.302 54.4191C169.357 54.4749 169.385 54.5493 169.385 54.6423V55.1167C169.385 55.2097 169.357 55.2888 169.302 55.3539C169.246 55.4097 169.167 55.4376 169.064 55.4376H167.334V59.0235C167.334 59.4607 167.409 59.8049 167.558 60.0561C167.706 60.3072 167.972 60.4328 168.353 60.4328H169.204C169.297 60.4328 169.371 60.4653 169.427 60.5305C169.492 60.5863 169.525 60.6607 169.525 60.7537V61.256C169.525 61.349 169.492 61.4281 169.427 61.4932C169.371 61.549 169.297 61.5769 169.204 61.5769H168.241Z" fill="#284599"/>
<path d="M156.666 61.5769C156.573 61.5769 156.494 61.549 156.428 61.4932C156.373 61.4281 156.345 61.349 156.345 61.256V54.6423C156.345 54.5493 156.373 54.4749 156.428 54.4191C156.494 54.354 156.573 54.3214 156.666 54.3214H157.321C157.414 54.3214 157.489 54.354 157.545 54.4191C157.61 54.4749 157.642 54.5493 157.642 54.6423V55.2563C157.884 54.94 158.187 54.6842 158.549 54.4888C158.921 54.2842 159.396 54.1819 159.972 54.1819C160.577 54.1819 161.089 54.3168 161.507 54.5865C161.935 54.847 162.256 55.2144 162.47 55.6888C162.693 56.1539 162.805 56.6981 162.805 57.3213V61.256C162.805 61.349 162.772 61.4281 162.707 61.4932C162.651 61.549 162.577 61.5769 162.484 61.5769H161.786C161.693 61.5769 161.614 61.549 161.549 61.4932C161.493 61.4281 161.465 61.349 161.465 61.256V57.3911C161.465 56.7399 161.307 56.233 160.991 55.8702C160.675 55.4981 160.21 55.3121 159.596 55.3121C159.019 55.3121 158.554 55.4981 158.2 55.8702C157.856 56.233 157.684 56.7399 157.684 57.3911V61.256C157.684 61.349 157.652 61.4281 157.587 61.4932C157.531 61.549 157.456 61.5769 157.363 61.5769H156.666Z" fill="#284599"/>
<path d="M150.742 61.7165C149.775 61.7165 149.007 61.4235 148.44 60.8374C147.873 60.2421 147.561 59.4328 147.505 58.4096C147.496 58.2887 147.491 58.1352 147.491 57.9492C147.491 57.7538 147.496 57.5957 147.505 57.4748C147.542 56.8143 147.696 56.2376 147.966 55.7446C148.235 55.2423 148.603 54.8563 149.068 54.5865C149.542 54.3168 150.096 54.1819 150.728 54.1819C151.435 54.1819 152.026 54.3307 152.5 54.6284C152.984 54.926 153.351 55.3493 153.603 55.8981C153.854 56.4469 153.979 57.0887 153.979 57.8236V58.0608C153.979 58.1631 153.947 58.2422 153.882 58.298C153.826 58.3538 153.751 58.3817 153.658 58.3817H148.831C148.831 58.391 148.831 58.4096 148.831 58.4375C148.831 58.4654 148.831 58.4887 148.831 58.5073C148.849 58.8887 148.933 59.2468 149.082 59.5817C149.231 59.9072 149.445 60.1723 149.724 60.377C150.012 60.5816 150.347 60.6839 150.728 60.6839C151.063 60.6839 151.342 60.6328 151.565 60.5305C151.789 60.4281 151.97 60.3165 152.11 60.1956C152.249 60.0654 152.342 59.963 152.389 59.8886C152.472 59.777 152.538 59.7119 152.584 59.6933C152.631 59.6654 152.705 59.6514 152.807 59.6514H153.491C153.575 59.6514 153.644 59.6793 153.7 59.7351C153.765 59.7817 153.793 59.8514 153.784 59.9444C153.775 60.084 153.7 60.2561 153.561 60.4607C153.421 60.656 153.221 60.8514 152.961 61.0467C152.71 61.2421 152.393 61.4049 152.012 61.5351C151.64 61.656 151.217 61.7165 150.742 61.7165ZM148.831 57.419H152.654V57.3771C152.654 56.9585 152.575 56.5864 152.417 56.2609C152.268 55.9353 152.049 55.6795 151.761 55.4935C151.472 55.2981 151.128 55.2004 150.728 55.2004C150.328 55.2004 149.984 55.2981 149.696 55.4935C149.417 55.6795 149.203 55.9353 149.054 56.2609C148.905 56.5864 148.831 56.9585 148.831 57.3771V57.419Z" fill="#284599"/>
<path d="M142.201 61.5771C142.061 61.5771 141.949 61.5445 141.866 61.4794C141.791 61.4143 141.731 61.3306 141.684 61.2282L139.103 54.7541C139.084 54.7076 139.075 54.6611 139.075 54.6146C139.075 54.5308 139.103 54.4611 139.159 54.4053C139.215 54.3494 139.284 54.3215 139.368 54.3215H140.038C140.14 54.3215 140.219 54.3494 140.275 54.4053C140.331 54.4611 140.368 54.5122 140.387 54.5587L142.508 60.0562L144.628 54.5587C144.647 54.5122 144.68 54.4611 144.726 54.4053C144.782 54.3494 144.861 54.3215 144.963 54.3215H145.647C145.721 54.3215 145.787 54.3494 145.842 54.4053C145.907 54.4611 145.94 54.5308 145.94 54.6146C145.94 54.6611 145.931 54.7076 145.912 54.7541L143.317 61.2282C143.28 61.3306 143.219 61.4143 143.135 61.4794C143.061 61.5445 142.949 61.5771 142.801 61.5771H142.201Z" fill="#284599"/>
<path d="M133.998 61.5771C133.905 61.5771 133.826 61.5492 133.76 61.4934C133.705 61.4282 133.677 61.3492 133.677 61.2562V54.6564C133.677 54.5634 133.705 54.4843 133.76 54.4192C133.826 54.3541 133.905 54.3215 133.998 54.3215H134.64C134.733 54.3215 134.812 54.3541 134.877 54.4192C134.942 54.4843 134.974 54.5634 134.974 54.6564V55.2703C135.16 54.9541 135.416 54.7169 135.742 54.5587C136.067 54.4006 136.463 54.3215 136.928 54.3215H137.472C137.565 54.3215 137.639 54.3541 137.695 54.4192C137.76 54.475 137.793 54.5494 137.793 54.6425V55.2145C137.793 55.3075 137.76 55.382 137.695 55.4378C137.639 55.4936 137.565 55.5215 137.472 55.5215H136.635C136.132 55.5215 135.737 55.6703 135.449 55.968C135.16 56.2563 135.016 56.6517 135.016 57.154V61.2562C135.016 61.3492 134.984 61.4282 134.919 61.4934C134.853 61.5492 134.774 61.5771 134.681 61.5771H133.998Z" fill="#284599"/>
<path d="M128.074 61.7165C127.106 61.7165 126.339 61.4235 125.772 60.8374C125.204 60.2421 124.893 59.4328 124.837 58.4096C124.827 58.2887 124.823 58.1352 124.823 57.9492C124.823 57.7538 124.827 57.5957 124.837 57.4748C124.874 56.8143 125.027 56.2376 125.297 55.7446C125.567 55.2423 125.934 54.8563 126.399 54.5865C126.874 54.3168 127.427 54.1819 128.06 54.1819C128.767 54.1819 129.357 54.3307 129.832 54.6284C130.316 54.926 130.683 55.3493 130.934 55.8981C131.185 56.4469 131.311 57.0887 131.311 57.8236V58.0608C131.311 58.1631 131.278 58.2422 131.213 58.298C131.157 58.3538 131.083 58.3817 130.99 58.3817H126.162C126.162 58.391 126.162 58.4096 126.162 58.4375C126.162 58.4654 126.162 58.4887 126.162 58.5073C126.181 58.8887 126.265 59.2468 126.413 59.5817C126.562 59.9072 126.776 60.1723 127.055 60.377C127.344 60.5816 127.678 60.6839 128.06 60.6839C128.395 60.6839 128.674 60.6328 128.897 60.5305C129.12 60.4281 129.302 60.3165 129.441 60.1956C129.581 60.0654 129.674 59.963 129.72 59.8886C129.804 59.777 129.869 59.7119 129.916 59.6933C129.962 59.6654 130.037 59.6514 130.139 59.6514H130.823C130.906 59.6514 130.976 59.6793 131.032 59.7351C131.097 59.7817 131.125 59.8514 131.116 59.9444C131.106 60.084 131.032 60.2561 130.892 60.4607C130.753 60.656 130.553 60.8514 130.292 61.0467C130.041 61.2421 129.725 61.4049 129.344 61.5351C128.971 61.656 128.548 61.7165 128.074 61.7165ZM126.162 57.419H129.985V57.3771C129.985 56.9585 129.906 56.5864 129.748 56.2609C129.599 55.9353 129.381 55.6795 129.092 55.4935C128.804 55.2981 128.46 55.2004 128.06 55.2004C127.66 55.2004 127.316 55.2981 127.027 55.4935C126.748 55.6795 126.534 55.9353 126.385 56.2609C126.237 56.5864 126.162 56.9585 126.162 57.3771V57.419Z" fill="#284599"/>
<path d="M121.856 61.5769C121.335 61.5769 120.912 61.4793 120.586 61.2839C120.261 61.0793 120.024 60.7956 119.875 60.4328C119.726 60.0607 119.651 59.6235 119.651 59.1212V55.4376H118.563C118.47 55.4376 118.391 55.4097 118.326 55.3539C118.27 55.2888 118.242 55.2097 118.242 55.1167V54.6423C118.242 54.5493 118.27 54.4749 118.326 54.4191C118.391 54.3539 118.47 54.3214 118.563 54.3214H119.651V51.9912C119.651 51.8982 119.679 51.8238 119.735 51.768C119.8 51.7029 119.879 51.6703 119.972 51.6703H120.628C120.721 51.6703 120.796 51.7029 120.851 51.768C120.917 51.8238 120.949 51.8982 120.949 51.9912V54.3214H122.679C122.782 54.3214 122.861 54.3539 122.916 54.4191C122.972 54.4749 123 54.5493 123 54.6423V55.1167C123 55.2097 122.972 55.2888 122.916 55.3539C122.861 55.4097 122.782 55.4376 122.679 55.4376H120.949V59.0235C120.949 59.4607 121.023 59.8049 121.172 60.0561C121.321 60.3072 121.586 60.4328 121.968 60.4328H122.819C122.912 60.4328 122.986 60.4653 123.042 60.5305C123.107 60.5863 123.14 60.6607 123.14 60.7537V61.256C123.14 61.349 123.107 61.4281 123.042 61.4932C122.986 61.549 122.912 61.5769 122.819 61.5769H121.856Z" fill="#284599"/>
<path d="M110.28 61.5769C110.187 61.5769 110.108 61.549 110.043 61.4932C109.987 61.4281 109.959 61.349 109.959 61.256V54.6423C109.959 54.5493 109.987 54.4749 110.043 54.4191C110.108 54.354 110.187 54.3214 110.28 54.3214H110.936C111.029 54.3214 111.104 54.354 111.159 54.4191C111.225 54.4749 111.257 54.5493 111.257 54.6423V55.2563C111.499 54.94 111.801 54.6842 112.164 54.4888C112.536 54.2842 113.011 54.1819 113.587 54.1819C114.192 54.1819 114.703 54.3168 115.122 54.5865C115.55 54.847 115.871 55.2144 116.085 55.6888C116.308 56.1539 116.42 56.6981 116.42 57.3213V61.256C116.42 61.349 116.387 61.4281 116.322 61.4932C116.266 61.549 116.192 61.5769 116.099 61.5769H115.401C115.308 61.5769 115.229 61.549 115.164 61.4932C115.108 61.4281 115.08 61.349 115.08 61.256V57.3911C115.08 56.7399 114.922 56.233 114.606 55.8702C114.29 55.4981 113.824 55.3121 113.211 55.3121C112.634 55.3121 112.169 55.4981 111.815 55.8702C111.471 56.233 111.299 56.7399 111.299 57.3911V61.256C111.299 61.349 111.266 61.4281 111.201 61.4932C111.145 61.549 111.071 61.5769 110.978 61.5769H110.28Z" fill="#284599"/>
<path d="M105.949 61.577C105.847 61.577 105.767 61.5491 105.712 61.4933C105.656 61.4282 105.628 61.3491 105.628 61.2561V52.1309C105.628 52.0379 105.656 51.9635 105.712 51.9077C105.767 51.8425 105.847 51.81 105.949 51.81H106.688C106.791 51.81 106.87 51.8425 106.926 51.9077C106.981 51.9635 107.009 52.0379 107.009 52.1309V61.2561C107.009 61.3491 106.981 61.4282 106.926 61.4933C106.87 61.5491 106.791 61.577 106.688 61.577H105.949Z" fill="#284599"/>
<path d="M92.4903 61.5769C92.3973 61.5769 92.3183 61.549 92.2532 61.4932C92.1973 61.4281 92.1694 61.349 92.1694 61.256V54.6423C92.1694 54.5493 92.1973 54.4749 92.2532 54.4191C92.3183 54.354 92.3973 54.3214 92.4903 54.3214H93.1461C93.2392 54.3214 93.3136 54.354 93.3694 54.4191C93.4345 54.4749 93.4671 54.5493 93.4671 54.6423V55.2563C93.7089 54.94 94.0112 54.6842 94.374 54.4888C94.7461 54.2842 95.2205 54.1819 95.7972 54.1819C96.4018 54.1819 96.9134 54.3168 97.332 54.5865C97.7599 54.847 98.0808 55.2144 98.2948 55.6888C98.518 56.1539 98.6296 56.6981 98.6296 57.3213V61.256C98.6296 61.349 98.5971 61.4281 98.532 61.4932C98.4762 61.549 98.4017 61.5769 98.3087 61.5769H97.6111C97.5181 61.5769 97.439 61.549 97.3739 61.4932C97.3181 61.4281 97.2902 61.349 97.2902 61.256V57.3911C97.2902 56.7399 97.132 56.233 96.8158 55.8702C96.4995 55.4981 96.0344 55.3121 95.4205 55.3121C94.8437 55.3121 94.3786 55.4981 94.0252 55.8702C93.681 56.233 93.5089 56.7399 93.5089 57.3911V61.256C93.5089 61.349 93.4764 61.4281 93.4112 61.4932C93.3554 61.549 93.281 61.5769 93.188 61.5769H92.4903Z" fill="#284599"/>
<path d="M88.4135 61.5771C88.3205 61.5771 88.2414 61.5492 88.1763 61.4934C88.1205 61.4283 88.0926 61.3492 88.0926 61.2562V54.6425C88.0926 54.5495 88.1205 54.475 88.1763 54.4192C88.2414 54.3541 88.3205 54.3216 88.4135 54.3216H89.0832C89.1763 54.3216 89.2507 54.3541 89.3065 54.4192C89.3716 54.475 89.4042 54.5495 89.4042 54.6425V61.2562C89.4042 61.3492 89.3716 61.4283 89.3065 61.4934C89.2507 61.5492 89.1763 61.5771 89.0832 61.5771H88.4135ZM88.3019 52.9681C88.2089 52.9681 88.1298 52.9402 88.0647 52.8844C88.0089 52.8193 87.981 52.7402 87.981 52.6472V51.8937C87.981 51.8007 88.0089 51.7217 88.0647 51.6565C88.1298 51.5914 88.2089 51.5589 88.3019 51.5589H89.1809C89.2739 51.5589 89.353 51.5914 89.4181 51.6565C89.4832 51.7217 89.5158 51.8007 89.5158 51.8937V52.6472C89.5158 52.7402 89.4832 52.8193 89.4181 52.8844C89.353 52.9402 89.2739 52.9681 89.1809 52.9681H88.3019Z" fill="#284599"/>
<path d="M81.7196 61.7165C81.2545 61.7165 80.8313 61.6234 80.4499 61.4374C80.0685 61.2514 79.7616 61.0002 79.529 60.6839C79.2965 60.3677 79.1802 60.0096 79.1802 59.6096C79.1802 58.9677 79.4406 58.4561 79.9615 58.0747C80.4825 57.6934 81.1615 57.4422 81.9987 57.3213L84.0777 57.0283V56.6236C84.0777 56.1771 83.9474 55.8283 83.687 55.5772C83.4358 55.326 83.0219 55.2004 82.4452 55.2004C82.0359 55.2004 81.701 55.2842 81.4406 55.4516C81.1801 55.619 80.9987 55.833 80.8964 56.0934C80.8406 56.233 80.7429 56.3027 80.6034 56.3027H79.9755C79.8732 56.3027 79.7941 56.2748 79.7383 56.219C79.6918 56.1539 79.6685 56.0795 79.6685 55.9958C79.6685 55.8562 79.7197 55.6841 79.822 55.4795C79.9336 55.2749 80.1011 55.0749 80.3243 54.8795C80.5476 54.6842 80.8313 54.5214 81.1754 54.3912C81.5289 54.2516 81.9568 54.1819 82.4591 54.1819C83.0172 54.1819 83.487 54.2563 83.8684 54.4051C84.2497 54.5447 84.5474 54.7353 84.7614 54.9772C84.9846 55.219 85.1427 55.4935 85.2358 55.8004C85.3381 56.1074 85.3892 56.419 85.3892 56.7353V61.256C85.3892 61.349 85.3567 61.4281 85.2916 61.4932C85.2358 61.549 85.1613 61.5769 85.0683 61.5769H84.4265C84.3242 61.5769 84.2451 61.549 84.1893 61.4932C84.1335 61.4281 84.1056 61.349 84.1056 61.256V60.656C83.9846 60.8235 83.8219 60.9909 83.6172 61.1583C83.4126 61.3165 83.1568 61.4514 82.8498 61.563C82.5428 61.6653 82.1661 61.7165 81.7196 61.7165ZM82.0126 60.67C82.394 60.67 82.7428 60.5909 83.0591 60.4328C83.3754 60.2654 83.6219 60.0096 83.7986 59.6654C83.9846 59.3212 84.0777 58.8887 84.0777 58.3678V57.9771L82.4591 58.2143C81.7987 58.3073 81.301 58.4654 80.9662 58.6887C80.6313 58.9026 80.4638 59.177 80.4638 59.5119C80.4638 59.7724 80.5383 59.991 80.6871 60.1677C80.8452 60.3351 81.0406 60.4607 81.2731 60.5444C81.515 60.6281 81.7615 60.67 82.0126 60.67Z" fill="#284599"/>
<path d="M70.6847 61.577C70.5824 61.577 70.5033 61.5491 70.4475 61.4933C70.3917 61.4282 70.3638 61.3491 70.3638 61.2561V52.1449C70.3638 52.0425 70.3917 51.9635 70.4475 51.9077C70.5033 51.8425 70.5824 51.81 70.6847 51.81H74.2287C74.9171 51.81 75.5124 51.9216 76.0147 52.1449C76.5263 52.3681 76.9217 52.703 77.2007 53.1495C77.4798 53.5867 77.6193 54.1355 77.6193 54.7959C77.6193 55.4564 77.4798 56.0052 77.2007 56.4424C76.9217 56.8796 76.5263 57.2098 76.0147 57.433C75.5124 57.6563 74.9171 57.7679 74.2287 57.7679H71.7591V61.2561C71.7591 61.3491 71.7265 61.4282 71.6614 61.4933C71.6056 61.5491 71.5265 61.577 71.4242 61.577H70.6847ZM71.7451 56.5958H74.159C74.8473 56.5958 75.3636 56.4424 75.7077 56.1354C76.0519 55.8284 76.224 55.3819 76.224 54.7959C76.224 54.2192 76.0566 53.7727 75.7217 53.4564C75.3868 53.1402 74.8659 52.982 74.159 52.982H71.7451V56.5958Z" fill="#284599"/>
<path d="M57.2262 61.5769C57.1332 61.5769 57.0541 61.549 56.989 61.4932C56.9332 61.4281 56.9053 61.349 56.9053 61.256V54.6423C56.9053 54.5493 56.9332 54.4749 56.989 54.4191C57.0541 54.354 57.1332 54.3214 57.2262 54.3214H57.882C57.975 54.3214 58.0494 54.354 58.1052 54.4191C58.1703 54.4749 58.2029 54.5493 58.2029 54.6423V55.2563C58.4448 54.94 58.7471 54.6842 59.1098 54.4888C59.4819 54.2842 59.9563 54.1819 60.533 54.1819C61.1377 54.1819 61.6493 54.3168 62.0679 54.5865C62.4958 54.847 62.8167 55.2144 63.0306 55.6888C63.2539 56.1539 63.3655 56.6981 63.3655 57.3213V61.256C63.3655 61.349 63.3329 61.4281 63.2678 61.4932C63.212 61.549 63.1376 61.5769 63.0446 61.5769H62.3469C62.2539 61.5769 62.1748 61.549 62.1097 61.4932C62.0539 61.4281 62.026 61.349 62.026 61.256V57.3911C62.026 56.7399 61.8679 56.233 61.5516 55.8702C61.2353 55.4981 60.7702 55.3121 60.1563 55.3121C59.5796 55.3121 59.1145 55.4981 58.761 55.8702C58.4168 56.233 58.2448 56.7399 58.2448 57.3911V61.256C58.2448 61.349 58.2122 61.4281 58.1471 61.4932C58.0913 61.549 58.0169 61.5769 57.9238 61.5769H57.2262Z" fill="#284599"/>
<path d="M51.1679 61.7165C50.4609 61.7165 49.8703 61.5816 49.3959 61.3118C48.9215 61.0421 48.5587 60.67 48.3075 60.1956C48.0564 59.7119 47.9169 59.1631 47.889 58.5491C47.8797 58.391 47.875 58.191 47.875 57.9492C47.875 57.698 47.8797 57.498 47.889 57.3492C47.9169 56.726 48.0564 56.1771 48.3075 55.7027C48.568 55.2283 48.9354 54.8563 49.4098 54.5865C49.8842 54.3168 50.4702 54.1819 51.1679 54.1819C51.8655 54.1819 52.4516 54.3168 52.926 54.5865C53.4004 54.8563 53.7631 55.2283 54.0143 55.7027C54.2748 56.1771 54.4189 56.726 54.4468 57.3492C54.4561 57.498 54.4608 57.698 54.4608 57.9492C54.4608 58.191 54.4561 58.391 54.4468 58.5491C54.4189 59.1631 54.2794 59.7119 54.0282 60.1956C53.7771 60.67 53.4143 61.0421 52.9399 61.3118C52.4655 61.5816 51.8748 61.7165 51.1679 61.7165ZM51.1679 60.6421C51.7446 60.6421 52.2051 60.4607 52.5492 60.0979C52.8934 59.7258 53.0794 59.1863 53.1074 58.4794C53.1167 58.3399 53.1213 58.1631 53.1213 57.9492C53.1213 57.7352 53.1167 57.5585 53.1074 57.419C53.0794 56.712 52.8934 56.1771 52.5492 55.8144C52.2051 55.4423 51.7446 55.2563 51.1679 55.2563C50.5912 55.2563 50.1261 55.4423 49.7726 55.8144C49.4284 56.1771 49.247 56.712 49.2284 57.419C49.2191 57.5585 49.2145 57.7352 49.2145 57.9492C49.2145 58.1631 49.2191 58.3399 49.2284 58.4794C49.247 59.1863 49.4284 59.7258 49.7726 60.0979C50.1261 60.4607 50.5912 60.6421 51.1679 60.6421Z" fill="#284599"/>
<path d="M44.4399 61.5771C44.3468 61.5771 44.2678 61.5492 44.2027 61.4934C44.1469 61.4283 44.1189 61.3492 44.1189 61.2562V54.6425C44.1189 54.5495 44.1469 54.475 44.2027 54.4192C44.2678 54.3541 44.3468 54.3216 44.4399 54.3216H45.1096C45.2026 54.3216 45.277 54.3541 45.3329 54.4192C45.398 54.475 45.4305 54.5495 45.4305 54.6425V61.2562C45.4305 61.3492 45.398 61.4283 45.3329 61.4934C45.277 61.5492 45.2026 61.5771 45.1096 61.5771H44.4399ZM44.3282 52.9681C44.2352 52.9681 44.1562 52.9402 44.091 52.8844C44.0352 52.8193 44.0073 52.7402 44.0073 52.6472V51.8937C44.0073 51.8007 44.0352 51.7217 44.091 51.6565C44.1562 51.5914 44.2352 51.5589 44.3282 51.5589H45.2073C45.3003 51.5589 45.3794 51.5914 45.4445 51.6565C45.5096 51.7217 45.5421 51.8007 45.5421 51.8937V52.6472C45.5421 52.7402 45.5096 52.8193 45.4445 52.8844C45.3794 52.9402 45.3003 52.9681 45.2073 52.9681H44.3282Z" fill="#284599"/>
<path d="M38.8204 61.7165C38.2995 61.7165 37.853 61.6514 37.4809 61.5211C37.1089 61.3909 36.8065 61.2328 36.574 61.0467C36.3414 60.8607 36.1647 60.6746 36.0438 60.4886C35.9322 60.3026 35.8717 60.1537 35.8624 60.0421C35.8531 59.9398 35.8856 59.8607 35.9601 59.8049C36.0345 59.7491 36.1089 59.7212 36.1833 59.7212H36.8112C36.8577 59.7212 36.8949 59.7305 36.9228 59.7491C36.96 59.7584 37.0065 59.7956 37.0623 59.8607C37.1833 59.991 37.3181 60.1212 37.467 60.2514C37.6158 60.3816 37.7972 60.4886 38.0111 60.5723C38.2344 60.656 38.5088 60.6979 38.8344 60.6979C39.3088 60.6979 39.6994 60.6095 40.0064 60.4328C40.3134 60.2468 40.4669 59.977 40.4669 59.6235C40.4669 59.391 40.4017 59.2049 40.2715 59.0654C40.1506 58.9259 39.9273 58.8003 39.6018 58.6887C39.2855 58.5771 38.8483 58.4608 38.2902 58.3399C37.7321 58.2096 37.2902 58.0515 36.9647 57.8655C36.6391 57.6701 36.4066 57.4422 36.267 57.1818C36.1275 56.912 36.0577 56.6097 36.0577 56.2748C36.0577 55.9306 36.1601 55.6004 36.3647 55.2842C36.5693 54.9586 36.867 54.6935 37.2577 54.4888C37.6577 54.2842 38.1553 54.1819 38.7506 54.1819C39.2344 54.1819 39.6483 54.2423 39.9925 54.3633C40.3366 54.4842 40.6203 54.6377 40.8436 54.8237C41.0668 55.0004 41.2343 55.1772 41.3459 55.3539C41.4575 55.5307 41.518 55.6795 41.5273 55.8004C41.5366 55.8934 41.5087 55.9725 41.4436 56.0376C41.3785 56.0934 41.304 56.1213 41.2203 56.1213H40.6343C40.5692 56.1213 40.5134 56.1074 40.4669 56.0795C40.4297 56.0516 40.3924 56.019 40.3552 55.9818C40.2622 55.8609 40.1506 55.74 40.0204 55.619C39.8994 55.4981 39.7367 55.4004 39.532 55.326C39.3367 55.2423 39.0762 55.2004 38.7506 55.2004C38.2856 55.2004 37.9367 55.2981 37.7042 55.4935C37.4716 55.6888 37.3554 55.9353 37.3554 56.233C37.3554 56.4097 37.4065 56.5678 37.5088 56.7074C37.6112 56.8469 37.8065 56.9725 38.0949 57.0841C38.3832 57.1957 38.8111 57.3166 39.3785 57.4469C39.9925 57.5678 40.4762 57.7306 40.8296 57.9352C41.1831 58.1399 41.4343 58.3771 41.5831 58.6468C41.7319 58.9166 41.8063 59.2282 41.8063 59.5817C41.8063 59.9723 41.6947 60.3305 41.4715 60.656C41.2482 60.9816 40.9134 61.2421 40.4669 61.4374C40.0204 61.6234 39.4716 61.7165 38.8204 61.7165Z" fill="#284599"/>
<path d="M32.5531 61.5771C32.4601 61.5771 32.3811 61.5492 32.3159 61.4934C32.2601 61.4283 32.2322 61.3492 32.2322 61.2562V54.6425C32.2322 54.5495 32.2601 54.475 32.3159 54.4192C32.3811 54.3541 32.4601 54.3216 32.5531 54.3216H33.2229C33.3159 54.3216 33.3903 54.3541 33.4461 54.4192C33.5113 54.475 33.5438 54.5495 33.5438 54.6425V61.2562C33.5438 61.3492 33.5113 61.4283 33.4461 61.4934C33.3903 61.5492 33.3159 61.5771 33.2229 61.5771H32.5531ZM32.4415 52.9681C32.3485 52.9681 32.2694 52.9402 32.2043 52.8844C32.1485 52.8193 32.1206 52.7402 32.1206 52.6472V51.8937C32.1206 51.8007 32.1485 51.7217 32.2043 51.6565C32.2694 51.5914 32.3485 51.5589 32.4415 51.5589H33.3206C33.4136 51.5589 33.4926 51.5914 33.5578 51.6565C33.6229 51.7217 33.6554 51.8007 33.6554 51.8937V52.6472C33.6554 52.7402 33.6229 52.8193 33.5578 52.8844C33.4926 52.9402 33.4136 52.9681 33.3206 52.9681H32.4415Z" fill="#284599"/>
<path d="M26.7662 61.7165C26.1057 61.7165 25.5337 61.5909 25.05 61.3397C24.5756 61.0793 24.2081 60.7119 23.9477 60.2375C23.6872 59.7538 23.5477 59.177 23.5291 58.5073C23.5198 58.3678 23.5151 58.1817 23.5151 57.9492C23.5151 57.7166 23.5198 57.5306 23.5291 57.3911C23.5477 56.7213 23.6872 56.1492 23.9477 55.6748C24.2081 55.1911 24.5756 54.8237 25.05 54.5726C25.5337 54.3121 26.1057 54.1819 26.7662 54.1819C27.3057 54.1819 27.7661 54.2563 28.1475 54.4051C28.5382 54.554 28.8591 54.7446 29.1103 54.9772C29.3614 55.2097 29.5475 55.4609 29.6684 55.7307C29.7986 56.0004 29.8684 56.2562 29.8777 56.4981C29.887 56.5911 29.8591 56.6655 29.794 56.7213C29.7288 56.7771 29.6498 56.805 29.5568 56.805H28.887C28.794 56.805 28.7242 56.7864 28.6777 56.7492C28.6312 56.7027 28.5847 56.6283 28.5382 56.526C28.3708 56.0702 28.1429 55.7493 27.8545 55.5632C27.5661 55.3772 27.208 55.2842 26.7801 55.2842C26.222 55.2842 25.7662 55.4562 25.4127 55.8004C25.0686 56.1446 24.8825 56.6981 24.8546 57.4608C24.8453 57.7957 24.8453 58.1213 24.8546 58.4375C24.8825 59.2096 25.0686 59.7677 25.4127 60.1119C25.7662 60.4467 26.222 60.6142 26.7801 60.6142C27.208 60.6142 27.5661 60.5212 27.8545 60.3351C28.1429 60.1491 28.3708 59.8282 28.5382 59.3724C28.5847 59.2701 28.6312 59.1956 28.6777 59.1491C28.7242 59.1026 28.794 59.0794 28.887 59.0794H29.5568C29.6498 59.0794 29.7288 59.1119 29.794 59.177C29.8591 59.2328 29.887 59.3073 29.8777 59.4003C29.8684 59.5956 29.8265 59.7956 29.7521 60.0003C29.6777 60.2049 29.5568 60.4142 29.3893 60.6281C29.2312 60.8328 29.0312 61.0188 28.7894 61.1863C28.5475 61.3444 28.2591 61.4746 27.9243 61.5769C27.5894 61.67 27.2034 61.7165 26.7662 61.7165Z" fill="#284599"/>
<path d="M18.233 61.7165C17.2656 61.7165 16.4982 61.4235 15.9307 60.8374C15.3633 60.2421 15.0517 59.4328 14.9959 58.4096C14.9866 58.2887 14.9819 58.1352 14.9819 57.9492C14.9819 57.7538 14.9866 57.5957 14.9959 57.4748C15.0331 56.8143 15.1866 56.2376 15.4563 55.7446C15.7261 55.2423 16.0935 54.8563 16.5586 54.5865C17.033 54.3168 17.5865 54.1819 18.219 54.1819C18.926 54.1819 19.5166 54.3307 19.991 54.6284C20.4747 54.926 20.8422 55.3493 21.0933 55.8981C21.3445 56.4469 21.4701 57.0887 21.4701 57.8236V58.0608C21.4701 58.1631 21.4375 58.2422 21.3724 58.298C21.3166 58.3538 21.2422 58.3817 21.1491 58.3817H16.3214C16.3214 58.391 16.3214 58.4096 16.3214 58.4375C16.3214 58.4654 16.3214 58.4887 16.3214 58.5073C16.34 58.8887 16.4237 59.2468 16.5726 59.5817C16.7214 59.9072 16.9353 60.1723 17.2144 60.377C17.5028 60.5816 17.8376 60.6839 18.219 60.6839C18.5539 60.6839 18.8329 60.6328 19.0562 60.5305C19.2794 60.4281 19.4608 60.3165 19.6004 60.1956C19.7399 60.0654 19.8329 59.963 19.8794 59.8886C19.9631 59.777 20.0282 59.7119 20.0748 59.6933C20.1213 59.6654 20.1957 59.6514 20.298 59.6514H20.9817C21.0654 59.6514 21.1352 59.6793 21.191 59.7351C21.2561 59.7817 21.284 59.8514 21.2747 59.9444C21.2654 60.084 21.191 60.2561 21.0515 60.4607C20.9119 60.656 20.7119 60.8514 20.4515 61.0467C20.2003 61.2421 19.8841 61.4049 19.5027 61.5351C19.1306 61.656 18.7074 61.7165 18.233 61.7165ZM16.3214 57.419H20.1445V57.3771C20.1445 56.9585 20.0655 56.5864 19.9073 56.2609C19.7585 55.9353 19.5399 55.6795 19.2515 55.4935C18.9632 55.2981 18.619 55.2004 18.219 55.2004C17.819 55.2004 17.4749 55.2981 17.1865 55.4935C16.9074 55.6795 16.6935 55.9353 16.5447 56.2609C16.3958 56.5864 16.3214 56.9585 16.3214 57.3771V57.419Z" fill="#284599"/>
<path d="M9.78918 61.5771C9.69616 61.5771 9.61709 61.5492 9.55198 61.4934C9.49617 61.4282 9.46826 61.3492 9.46826 61.2562V54.6564C9.46826 54.5634 9.49617 54.4843 9.55198 54.4192C9.61709 54.3541 9.69616 54.3215 9.78918 54.3215H10.431C10.524 54.3215 10.6031 54.3541 10.6682 54.4192C10.7333 54.4843 10.7659 54.5634 10.7659 54.6564V55.2703C10.9519 54.9541 11.2077 54.7169 11.5333 54.5587C11.8589 54.4006 12.2542 54.3215 12.7193 54.3215H13.2635C13.3565 54.3215 13.4309 54.3541 13.4867 54.4192C13.5518 54.475 13.5844 54.5494 13.5844 54.6425V55.2145C13.5844 55.3075 13.5518 55.382 13.4867 55.4378C13.4309 55.4936 13.3565 55.5215 13.2635 55.5215H12.4263C11.924 55.5215 11.5286 55.6703 11.2403 55.968C10.9519 56.2563 10.8077 56.6517 10.8077 57.154V61.2562C10.8077 61.3492 10.7752 61.4282 10.7101 61.4934C10.645 61.5492 10.5659 61.5771 10.4729 61.5771H9.78918Z" fill="#284599"/>
<path d="M0.320918 61.577C0.218596 61.577 0.139529 61.5491 0.0837177 61.4933C0.0279059 61.4282 0 61.3491 0 61.2561V52.1449C0 52.0425 0.0279059 51.9635 0.0837177 51.9077C0.139529 51.8425 0.218596 51.81 0.320918 51.81H3.86497C4.55331 51.81 5.14864 51.9216 5.65094 52.1449C6.16255 52.3681 6.55788 52.703 6.83694 53.1495C7.116 53.5867 7.25553 54.1355 7.25553 54.7959C7.25553 55.4564 7.116 56.0052 6.83694 56.4424C6.55788 56.8796 6.16255 57.2098 5.65094 57.433C5.14864 57.6563 4.55331 57.7679 3.86497 57.7679H1.39529V61.2561C1.39529 61.3491 1.36274 61.4282 1.29762 61.4933C1.24181 61.5491 1.16275 61.577 1.06042 61.577H0.320918ZM1.38134 56.5958H3.7952C4.48355 56.5958 4.99981 56.4424 5.34398 56.1354C5.68815 55.8284 5.86024 55.3819 5.86024 54.7959C5.86024 54.2192 5.6928 53.7727 5.35793 53.4564C5.02306 53.1402 4.50215 52.982 3.7952 52.982H1.38134V56.5958Z" fill="#284599"/>
<path d="M106.49 32.3686L89.737 32.4031L85.3983 41.9071H79.0278L98.3113 0.309845L117.078 41.8382H110.622L106.49 32.3686ZM104.062 26.8246L98.2252 13.5328L92.1647 26.8418H104.062V26.8246Z" fill="#284599"/>
<path d="M148.07 32.2826L131.317 32.3171L126.978 41.8211H120.608L139.891 0.241074L158.658 41.7694H152.202L148.07 32.2826ZM145.642 26.7386L139.805 13.464L133.745 26.7731L145.625 26.7386H145.642Z" fill="#284599"/>
<path d="M163.462 0L163.548 41.7522H169.454L169.402 14.3765L198 44.0765L197.931 2.59983H192.008L192.06 29.7689L163.462 0Z" fill="#284599"/>
</svg>
