<svg width="115" height="20" viewBox="0 0 115 20" fill="none" xmlns="http://www.w3.org/2000/svg">
<path d="M9.99026 15.9874L5.14735 18.9049C4.9334 19.041 4.70973 19.0993 4.47634 19.0799C4.24295 19.0605 4.03873 18.9827 3.86368 18.8465C3.68864 18.7104 3.55249 18.5404 3.45524 18.3365C3.358 18.1327 3.33855 17.904 3.3969 17.6504L4.68056 12.1365L0.391956 8.43133C0.197461 8.25629 0.0760969 8.05674 0.0278623 7.83268C-0.0203724 7.60862 -0.00597985 7.39001 0.07104 7.17685C0.14806 6.96368 0.264756 6.78863 0.42113 6.65171C0.577504 6.51479 0.791447 6.42726 1.06296 6.38914L6.72275 5.89318L8.91081 0.70018C9.00806 0.466787 9.15899 0.291741 9.3636 0.175045C9.5682 0.0583482 9.77709 0 9.99026 0C10.2034 0 10.4123 0.0583482 10.6169 0.175045C10.8215 0.291741 10.9725 0.466787 11.0697 0.70018L13.2578 5.89318L18.9176 6.38914C19.1898 6.42804 19.4038 6.51556 19.5594 6.65171C19.715 6.78786 19.8317 6.9629 19.9095 7.17685C19.9873 7.39079 20.0021 7.60979 19.9538 7.83385C19.9056 8.0579 19.7838 8.25707 19.5886 8.43133L15.3 12.1365L16.5836 17.6504C16.642 17.9032 16.6225 18.1319 16.5253 18.3365C16.428 18.5412 16.2919 18.7111 16.1168 18.8465C15.9418 18.9819 15.7376 19.0597 15.5042 19.0799C15.2708 19.1001 15.0471 19.0418 14.8332 18.9049L9.99026 15.9874Z" fill="#FCBF02"/>
<path d="M33.7451 15.9874L28.9022 18.9049C28.6883 19.041 28.4646 19.0993 28.2312 19.0799C27.9978 19.0605 27.7936 18.9827 27.6186 18.8465C27.4435 18.7104 27.3074 18.5404 27.2101 18.3365C27.1129 18.1327 27.0934 17.904 27.1518 17.6504L28.4354 12.1365L24.1468 8.43133C23.9523 8.25629 23.831 8.05674 23.7827 7.83268C23.7345 7.60862 23.7489 7.39001 23.8259 7.17685C23.9029 6.96368 24.0196 6.78863 24.176 6.65171C24.3324 6.51479 24.5463 6.42726 24.8178 6.38914L30.4776 5.89318L32.6657 0.70018C32.7629 0.466787 32.9139 0.291741 33.1185 0.175045C33.3231 0.0583482 33.532 0 33.7451 0C33.9583 0 34.1672 0.0583482 34.3718 0.175045C34.5764 0.291741 34.7273 0.466787 34.8246 0.70018L37.0126 5.89318L42.6724 6.38914C42.9447 6.42804 43.1587 6.51556 43.3143 6.65171C43.4699 6.78786 43.5866 6.9629 43.6644 7.17685C43.7422 7.39079 43.7569 7.60979 43.7087 7.83385C43.6605 8.0579 43.5387 8.25707 43.3434 8.43133L39.0548 12.1365L40.3385 17.6504C40.3969 17.9032 40.3774 18.1319 40.2802 18.3365C40.1829 18.5412 40.0468 18.7111 39.8717 18.8465C39.6967 18.9819 39.4925 19.0597 39.2591 19.0799C39.0257 19.1001 38.802 19.0418 38.5881 18.9049L33.7451 15.9874Z" fill="#FCBF02"/>
<path d="M57.4995 15.9874L52.6566 18.9049C52.4427 19.041 52.219 19.0993 51.9856 19.0799C51.7522 19.0605 51.548 18.9827 51.373 18.8465C51.1979 18.7104 51.0618 18.5404 50.9645 18.3365C50.8673 18.1327 50.8478 17.904 50.9062 17.6504L52.1898 12.1365L47.9012 8.43133C47.7067 8.25629 47.5854 8.05674 47.5371 7.83268C47.4889 7.60862 47.5033 7.39001 47.5803 7.17685C47.6573 6.96368 47.774 6.78863 47.9304 6.65171C48.0868 6.51479 48.3007 6.42726 48.5722 6.38914L54.232 5.89318L56.4201 0.70018C56.5173 0.466787 56.6683 0.291741 56.8729 0.175045C57.0775 0.0583482 57.2864 0 57.4995 0C57.7127 0 57.9216 0.0583482 58.1262 0.175045C58.3308 0.291741 58.4817 0.466787 58.579 0.70018L60.767 5.89318L66.4268 6.38914C66.6991 6.42804 66.9131 6.51556 67.0687 6.65171C67.2243 6.78786 67.341 6.9629 67.4188 7.17685C67.4965 7.39079 67.5113 7.60979 67.4631 7.83385C67.4149 8.0579 67.2931 8.25707 67.0978 8.43133L62.8092 12.1365L64.0929 17.6504C64.1512 17.9032 64.1318 18.1319 64.0345 18.3365C63.9373 18.5412 63.8012 18.7111 63.6261 18.8465C63.4511 18.9819 63.2468 19.0597 63.0135 19.0799C62.7801 19.1001 62.5564 19.0418 62.3424 18.9049L57.4995 15.9874Z" fill="#FCBF02"/>
<path d="M81.2544 15.9874L76.4115 18.9049C76.1976 19.041 75.9739 19.0993 75.7405 19.0799C75.5071 19.0605 75.3029 18.9827 75.1278 18.8465C74.9528 18.7104 74.8167 18.5404 74.7194 18.3365C74.6222 18.1327 74.6027 17.904 74.6611 17.6504L75.9447 12.1365L71.6561 8.43133C71.4616 8.25629 71.3403 8.05674 71.292 7.83268C71.2438 7.60862 71.2582 7.39001 71.3352 7.17685C71.4122 6.96368 71.5289 6.78863 71.6853 6.65171C71.8417 6.51479 72.0556 6.42726 72.3271 6.38914L77.9869 5.89318L80.175 0.70018C80.2722 0.466787 80.4231 0.291741 80.6278 0.175045C80.8324 0.0583482 81.0413 0 81.2544 0C81.4676 0 81.6765 0.0583482 81.8811 0.175045C82.0857 0.291741 82.2366 0.466787 82.3339 0.70018L84.5219 5.89318L90.1817 6.38914C90.454 6.42804 90.6679 6.51556 90.8235 6.65171C90.9791 6.78786 91.0958 6.9629 91.1736 7.17685C91.2514 7.39079 91.2662 7.60979 91.218 7.83385C91.1697 8.0579 91.048 8.25707 90.8527 8.43133L86.5641 12.1365L87.8478 17.6504C87.9061 17.9032 87.8867 18.1319 87.7894 18.3365C87.6922 18.5412 87.556 18.7111 87.381 18.8465C87.2059 18.9819 87.0017 19.0597 86.7683 19.0799C86.5349 19.1001 86.3113 19.0418 86.0973 18.9049L81.2544 15.9874Z" fill="#FCBF02"/>
<path d="M105.009 15.9874L100.166 18.9049C99.952 19.041 99.7283 19.0993 99.4949 19.0799C99.2615 19.0605 99.0573 18.9827 98.8822 18.8465C98.7072 18.7104 98.571 18.5404 98.4738 18.3365C98.3766 18.1327 98.3571 17.904 98.4154 17.6504L99.6991 12.1365L95.4105 8.43133C95.216 8.25629 95.0947 8.05674 95.0464 7.83268C94.9982 7.60862 95.0126 7.39001 95.0896 7.17685C95.1666 6.96368 95.2833 6.78863 95.4397 6.65171C95.5961 6.51479 95.81 6.42726 96.0815 6.38914L101.741 5.89318L103.929 0.70018C104.027 0.466787 104.178 0.291741 104.382 0.175045C104.587 0.0583482 104.796 0 105.009 0C105.222 0 105.431 0.0583482 105.635 0.175045C105.84 0.291741 105.991 0.466787 106.088 0.70018L108.276 5.89318L113.936 6.38914C114.208 6.42804 114.422 6.51556 114.578 6.65171C114.734 6.78786 114.85 6.9629 114.928 7.17685C115.006 7.39079 115.021 7.60979 114.972 7.83385C114.924 8.0579 114.802 8.25707 114.607 8.43133L110.319 12.1365L111.602 17.6504C111.661 17.9032 111.641 18.1319 111.544 18.3365C111.447 18.5412 111.31 18.7111 111.135 18.8465C110.96 18.9819 110.756 19.0597 110.523 19.0799C110.289 19.1001 110.066 19.0418 109.852 18.9049L105.009 15.9874Z" fill="#FCBF02"/>
</svg>
