<svg width="132" height="150" viewBox="0 0 132 150" fill="none" xmlns="http://www.w3.org/2000/svg">
<path d="M38.9099 131.59L94.9157 131.59L122.919 83.0209L94.9157 34.4537L38.9099 34.4537L10.907 83.0209L38.9099 131.59Z" fill="#0852A0"/>
<path d="M36.4398 135.875L97.3847 135.875L127.857 83.021L97.3847 30.1694L36.4398 30.1694L5.96728 83.021L36.4398 135.875Z" stroke="#59D1FF" stroke-width="4" stroke-miterlimit="10"/>
<path d="M39.3991 29.4532C39.0142 27.8099 37.3719 26.7902 35.7308 27.1756C34.0898 27.561 33.0715 29.2057 33.4564 30.8489C33.8413 32.4922 35.4837 33.5119 37.1247 33.1265C38.7657 32.7411 39.784 31.0965 39.3991 29.4532Z" fill="#59D1FF"/>
<path d="M99.6649 28.0074C98.473 26.8139 96.5406 26.8139 95.3487 28.0074C94.1569 29.2009 94.1569 31.1359 95.3488 32.3295C96.5406 33.523 98.473 33.523 99.6649 32.3295C100.857 31.136 100.857 29.2009 99.6649 28.0074Z" fill="#59D1FF"/>
<path d="M130.818 82.3007C130.433 80.6575 128.791 79.6378 127.15 80.0232C125.509 80.4086 124.491 82.0532 124.876 83.6965C125.26 85.3398 126.903 86.3595 128.544 85.9741C130.185 85.5886 131.203 83.944 130.818 82.3007Z" fill="#59D1FF"/>
<path d="M100.473 135.159C100.083 133.517 98.4379 132.502 96.798 132.892C95.1581 133.282 94.1447 134.93 94.5345 136.572C94.9243 138.214 96.5696 139.229 98.2095 138.839C99.8493 138.449 100.863 136.801 100.473 135.159Z" fill="#59D1FF"/>
<path d="M38.5973 133.714C37.4054 132.521 35.473 132.521 34.2811 133.714C33.0893 134.908 33.0893 136.843 34.2811 138.036C35.473 139.23 37.4054 139.23 38.5973 138.036C39.7892 136.843 39.7892 134.908 38.5973 133.714Z" fill="#59D1FF"/>
<path d="M8.12439 80.8602C6.93251 79.6667 5.00009 79.6667 3.80822 80.8603C2.61635 82.0538 2.61636 83.9888 3.80823 85.1823C5.0001 86.3759 6.93251 86.3759 8.12438 85.1824C9.31625 83.9888 9.31626 82.0538 8.12439 80.8602Z" fill="#59D1FF"/>
<path opacity="0.46" d="M42.713 124.996L91.1126 124.996L115.314 83.0212L91.1126 41.0486L42.713 41.0486L18.5112 83.0212L42.713 124.996Z" fill="#59D1FF"/>
<path d="M97.5066 30.1693L123.9 3.73734" stroke="#59D1FF" stroke-width="5" stroke-miterlimit="10"/>
<path d="M126.499 6.61418C128.01 5.10154 128.01 2.64711 126.499 1.13447C124.989 -0.378163 122.538 -0.378162 121.027 1.13447C119.516 2.64711 119.516 5.10154 121.027 6.61418C122.538 8.12682 124.989 8.12682 126.499 6.61418Z" fill="#59D1FF"/>
<path d="M88.4868 146.633L29.2171 146.633L2.15015 101" stroke="#59D1FF" stroke-width="5" stroke-miterlimit="10"/>
<path d="M92.6612 71.0046C92.6612 71.8902 92.3512 72.643 91.7313 73.2629L67.6867 97.3075L63.1701 101.824C62.5501 102.444 61.7974 102.754 60.9117 102.754C60.0261 102.754 59.2733 102.444 58.6534 101.824L54.1368 97.3075L42.1145 85.2852C41.4945 84.6653 41.1846 83.9125 41.1846 83.0269C41.1846 82.1413 41.4945 81.3885 42.1145 80.7686L46.6311 76.2519C47.2511 75.632 48.0038 75.322 48.8895 75.322C49.7751 75.322 50.5279 75.632 51.1478 76.2519L60.9117 86.0491L82.698 64.2296C83.3179 63.6097 84.0707 63.2997 84.9563 63.2997C85.8419 63.2997 86.5947 63.6097 87.2146 64.2296L91.7313 68.7463C92.3512 69.3662 92.6612 70.119 92.6612 71.0046Z" fill="white"/>
</svg>
