<svg width="36" height="31" viewBox="0 0 36 31" fill="none" xmlns="http://www.w3.org/2000/svg">
<path d="M30.5986 17.1401C30.5705 17.3938 30.5424 17.6475 30.5143 17.9013C30.5143 18.0422 30.4301 18.2114 30.4021 18.3523C30.4021 18.4651 30.4021 18.5497 30.374 18.6624C30.3178 18.9443 30.2617 19.1981 30.2056 19.4518C30.1494 19.6491 30.0933 19.8464 30.0371 20.0438C30.0091 20.1565 29.9248 20.2693 29.8968 20.3821C29.8406 20.5512 29.7845 20.7204 29.7283 20.8895C29.6441 21.0868 29.5599 21.256 29.5038 21.4533C29.4757 21.5097 29.4476 21.5943 29.4195 21.6789C29.3353 21.848 29.2511 22.0171 29.1669 22.1863C29.1107 22.3272 29.0265 22.4682 28.9704 22.6092C28.9142 22.7219 28.8581 22.8347 28.802 22.9193C28.7177 23.0602 28.6335 23.2294 28.5493 23.3703C28.5493 23.3703 28.5212 23.3985 28.4932 23.4267C28.3528 23.6522 28.1844 23.8496 28.044 24.0751C27.9317 24.2442 27.8194 24.4134 27.7071 24.5825C27.5387 24.8081 27.3983 25.0054 27.2299 25.2309C27.1457 25.3155 27.0615 25.4001 26.9773 25.5128C26.8931 25.6256 26.8088 25.7102 26.6965 25.8229C26.5281 26.0203 26.3597 26.1894 26.1912 26.3586C26.0228 26.5277 25.8825 26.725 25.6579 26.866C25.5175 26.9506 25.4052 27.0915 25.2649 27.2043C25.0684 27.3452 24.8719 27.5144 24.7034 27.6553C24.535 27.7963 24.3385 27.9373 24.1701 28.05C24.0016 28.1628 23.8332 28.2755 23.6648 28.3883C23.5244 28.4729 23.384 28.5575 23.2437 28.642C23.0752 28.7266 22.9349 28.8112 22.7665 28.8957C22.7665 28.8957 22.7103 28.9521 22.6822 28.9521C22.57 29.0085 22.4296 29.0649 22.3173 29.1495C22.1769 29.234 22.0647 29.3186 21.9243 29.375C21.8401 29.4314 21.7278 29.4314 21.6436 29.4878C21.4751 29.5723 21.3348 29.6851 21.1383 29.7133C20.9418 29.7415 20.7453 29.8542 20.5488 29.9106C20.4365 29.9106 20.3242 29.9952 20.24 30.0516H20.1838C20.0154 30.108 19.8189 30.1643 19.6505 30.2207C19.5662 30.2207 19.482 30.2207 19.4259 30.2489C19.2013 30.3335 18.9767 30.3899 18.7241 30.4181C18.4153 30.4462 18.1065 30.5026 17.7977 30.5872C17.6012 30.6436 17.4328 30.6436 17.2363 30.6718C17.124 30.6718 17.0117 30.7 16.8994 30.7282C16.8152 30.7282 16.731 30.7282 16.6467 30.7282C16.5345 30.7282 16.4222 30.7282 16.3099 30.7282C16.1976 30.7282 16.0853 30.7282 15.973 30.7282C15.8888 30.7282 15.8046 30.7282 15.7204 30.7282C15.6923 30.7282 15.6642 30.7845 15.6361 30.8127C15.4396 30.8127 15.2431 30.8127 15.0466 30.8127C15.0466 30.8127 14.9905 30.7282 14.9624 30.7282C14.8501 30.7282 14.7378 30.7282 14.6256 30.7282C14.5133 30.7282 14.401 30.7282 14.2887 30.7282C14.1764 30.7282 14.0641 30.7282 13.9518 30.7282C13.6711 30.7 13.3904 30.6718 13.1097 30.6436C12.9132 30.6436 12.7447 30.5872 12.5482 30.559C12.3517 30.5308 12.1833 30.4744 12.0148 30.4181C11.8464 30.3899 11.7061 30.3617 11.5376 30.3053C11.2569 30.2207 10.9762 30.1361 10.6955 30.0516C10.4147 29.967 10.1059 29.8824 9.82523 29.7415C9.65679 29.6569 9.46029 29.6005 9.26379 29.5441C9.06728 29.4596 8.87078 29.3468 8.67427 29.2622C8.53391 29.1777 8.36548 29.1213 8.22512 29.0367C8.08476 28.9521 7.97247 28.8394 7.83211 28.8112C7.60753 28.7266 7.4391 28.5856 7.2426 28.4729C7.07416 28.3601 6.90573 28.2474 6.7373 28.1346C6.54079 27.9936 6.34429 27.8527 6.14778 27.7117C5.95128 27.5708 5.78285 27.4298 5.58634 27.2889C5.38984 27.1197 5.19333 26.9224 4.99683 26.725C4.80032 26.5559 4.60382 26.3586 4.40732 26.1894C4.15467 25.9357 3.93009 25.682 3.67744 25.4001C3.56515 25.2591 3.42479 25.1182 3.3125 24.949C3.20022 24.8081 3.116 24.6389 3.03178 24.498C2.9195 24.3288 2.75106 24.1879 2.63878 24.0187C2.49841 23.765 2.27384 23.5395 2.18962 23.2576C2.16155 23.1448 2.04926 23.0602 1.99312 22.9756C1.93697 22.8911 1.9089 22.8065 1.85276 22.7219C1.76854 22.5528 1.68432 22.4118 1.60011 22.2709C1.60011 22.2427 1.57204 22.1863 1.54396 22.1581C1.45975 21.989 1.37553 21.8198 1.31939 21.6507C1.29132 21.5661 1.26324 21.4815 1.2071 21.3969C1.15096 21.2842 1.09481 21.1432 1.03867 21.0305C1.01059 20.9459 0.982523 20.8613 0.954451 20.7767C0.870234 20.523 0.757946 20.2693 0.67373 19.9874C0.589514 19.7337 0.561442 19.48 0.477225 19.2262C0.421081 18.9725 0.308793 18.7188 0.252649 18.4651C0.196505 18.1832 0.168432 17.8731 0.14036 17.5912C0.112288 17.3656 0.0842162 17.1401 0.0561442 16.9428C0.0561442 16.83 0.112288 16.6891 0 16.5763C0 16.5481 0 16.4917 0 16.4635C0 16.4353 0.0561442 16.4071 0.0561442 16.379C0.0561442 16.2944 0.0561442 16.1816 0.0561442 16.097C0.0561442 15.9843 0.0561442 15.8715 0.0561442 15.7588C0.0561442 15.5332 0.0561442 15.3077 0.0561442 15.0822C0.0561442 14.9694 0.0561442 14.8566 0.0561442 14.7439C0.0561442 14.6311 0.0561442 14.5184 0.0561442 14.4056C0.0561442 14.2928 0.0561442 14.1801 0.0561442 14.0673C0.0561442 13.87 0.0561442 13.7008 0.0842162 13.5035C0.112288 13.2498 0.168432 13.0242 0.224577 12.7705C0.224577 12.7141 0.224577 12.6577 0.224577 12.6014C0.252649 12.404 0.280721 12.1785 0.308793 11.9812C0.308793 11.8684 0.364937 11.7556 0.393009 11.6711C0.449153 11.5019 0.505297 11.3328 0.561442 11.1354C0.67373 10.7971 0.757946 10.4307 0.870234 10.0924C0.982523 9.78227 1.15096 9.47217 1.26324 9.16207C1.34746 8.99292 1.4036 8.79558 1.48782 8.62644C1.57204 8.45729 1.65625 8.31634 1.74047 8.17538C1.82468 8.03443 1.88083 7.89347 1.96505 7.78071C2.07733 7.55518 2.21769 7.35784 2.32998 7.16051C2.47034 6.96317 2.58263 6.76583 2.72299 6.5685C2.83528 6.39935 2.94757 6.2302 3.05986 6.08925C3.20022 5.89191 3.34058 5.72277 3.48094 5.52543C3.6213 5.35628 3.76166 5.21533 3.90202 5.07437C4.09852 4.87704 4.3231 4.6797 4.5196 4.45417C4.80032 4.20045 5.05297 3.91854 5.33369 3.66483C5.50213 3.52387 5.67056 3.41111 5.83899 3.29834C5.95128 3.21377 6.0355 3.10101 6.14778 3.01643C6.26007 2.93186 6.37236 2.87548 6.48465 2.79091C6.51272 2.79091 6.54079 2.73452 6.56887 2.70633C6.70923 2.62176 6.87766 2.53719 7.01802 2.45261C7.15838 2.36804 7.27067 2.28347 7.41103 2.1707C7.49524 2.11432 7.55139 2.05794 7.6356 2.02975C7.77597 1.94518 7.9444 1.8606 8.08476 1.77603C8.33741 1.66327 8.59006 1.5505 8.8427 1.43774C9.03921 1.35317 9.23571 1.2404 9.43222 1.12764C9.51643 1.07126 9.62872 1.07126 9.71294 1.04307C9.82523 0.986684 9.96559 0.930302 10.1059 0.930302C10.1621 0.930302 10.2182 0.87392 10.3025 0.845729C10.4709 0.817538 10.6112 0.732965 10.7797 0.676583C11.0043 0.620201 11.2288 0.563819 11.4534 0.507437C11.678 0.451056 11.9026 0.394674 12.1271 0.338292C12.2675 0.310101 12.4079 0.28191 12.5482 0.253719C12.7728 0.197337 12.9693 0.140955 13.1939 0.112764C13.3623 0.112764 13.5307 0.112764 13.7272 0.0845729C13.8395 0.0845729 13.9518 0.0845729 14.0641 0.0845729C14.1483 0.0845729 14.2325 0.0845729 14.3168 0.0845729C14.3729 0.0845729 14.429 0.0845729 14.4852 0.0845729C14.5133 0.0845729 14.5413 0.028191 14.5694 0C14.9624 0 15.3554 0 15.7484 0C15.7484 0 15.8046 0.0845729 15.8327 0.0845729C15.9449 0.0845729 16.0572 0.0845729 16.1695 0.0845729C16.2818 0.0845729 16.3941 0.0845729 16.5064 0.0845729C16.5906 0.0845729 16.6748 0.0845729 16.759 0.0845729C16.8994 0.0845729 17.0678 0.0845729 17.2082 0.112764C17.3205 0.112764 17.4047 0.140955 17.517 0.169146C17.6573 0.169146 17.8258 0.225528 17.9661 0.253719C18.1907 0.310101 18.4153 0.366483 18.6399 0.422865C18.6399 0.422865 18.696 0.422865 18.7241 0.422865C18.9206 0.422865 19.1171 0.507437 19.3136 0.563819C19.4539 0.620201 19.5943 0.620201 19.7347 0.676583C19.875 0.732965 20.0435 0.732965 20.1838 0.817538C20.268 0.87392 20.3523 0.902111 20.4645 0.902111C20.6049 0.930302 20.7453 0.958493 20.8576 1.07126C20.9418 1.12764 21.0541 1.12764 21.1383 1.15583C21.2786 1.21221 21.419 1.26859 21.5594 1.32498C21.6155 1.35317 21.6997 1.38136 21.7559 1.40955C21.8401 1.43774 21.9243 1.46593 21.9804 1.52231C22.0647 1.57869 22.1769 1.60689 22.2612 1.66327C22.3454 1.71965 22.4296 1.77603 22.5138 1.83241C22.6261 1.88879 22.7384 1.94518 22.8226 2.00156C22.9068 2.05794 23.0191 2.11432 23.1033 2.1707C23.1875 2.22709 23.2998 2.28347 23.384 2.33985C23.5244 2.42442 23.6367 2.509 23.777 2.59357C23.9174 2.67814 24.0578 2.76272 24.1981 2.84729C24.2543 2.87548 24.2823 2.93186 24.3385 2.96005C24.5069 3.10101 24.6754 3.27015 24.8719 3.41111C25.0122 3.49568 25.0964 3.60844 25.2368 3.69302C25.2929 3.7494 25.2929 3.80578 25.2087 3.86216C25.0964 3.91855 25.0122 3.97493 24.8999 4.03131C24.7315 4.14407 24.5631 4.25684 24.3946 4.3696C24.2262 4.51056 24.0578 4.6797 23.8893 4.76427C23.8051 4.82066 23.7209 4.87704 23.6367 4.93342C23.6086 4.93342 23.4963 4.93342 23.4402 4.87704C23.2998 4.73608 23.1314 4.62332 22.963 4.53875C22.9068 4.51056 22.8787 4.45417 22.8226 4.39779C22.6542 4.28503 22.4577 4.14407 22.2892 4.03131C22.0366 3.89035 21.7839 3.7494 21.5313 3.60844C21.3909 3.52387 21.2225 3.46749 21.0821 3.38292C20.9137 3.29834 20.7172 3.18558 20.5488 3.1292C20.3803 3.04462 20.2119 3.01643 20.0435 2.93186C19.9873 2.93186 19.9312 2.87548 19.875 2.84729C19.5943 2.76272 19.3136 2.67814 19.0329 2.59357C18.8083 2.509 18.5837 2.45261 18.3591 2.36804C18.1626 2.31166 17.9942 2.28347 17.7977 2.25528C17.5731 2.1989 17.3205 2.1707 17.0959 2.11432C17.0678 2.11432 17.0117 2.11432 16.9836 2.11432C16.8994 2.11432 16.7871 2.11432 16.7029 2.08613C16.6187 2.08613 16.5345 2.08613 16.4502 2.08613C16.4502 2.08613 16.3941 2.02975 16.366 2.00156C16.3099 2.00156 16.2537 2.00156 16.1976 2.00156C16.0853 2.00156 15.973 2.00156 15.8607 2.00156C15.6081 2.00156 15.3554 2.00156 15.1028 2.00156C14.9063 2.00156 14.7098 2.00156 14.5133 2.00156C14.429 2.00156 14.3448 2.00156 14.2606 2.00156C14.2325 2.00156 14.2045 2.05794 14.1764 2.08613C13.9518 2.08613 13.7553 2.08613 13.5307 2.11432C13.3062 2.11432 13.1097 2.1989 12.9132 2.25528C12.8009 2.25528 12.7167 2.25528 12.6044 2.28347C12.3517 2.33985 12.071 2.36804 11.8464 2.45261C11.5657 2.56538 11.285 2.59357 11.0043 2.73452C10.8358 2.8191 10.6112 2.87548 10.4147 2.93186C10.3025 2.93186 10.2182 3.01643 10.1059 3.07282C10.0217 3.10101 9.93752 3.15739 9.8533 3.18558C9.71294 3.27015 9.54451 3.29834 9.40415 3.38292C9.29186 3.46749 9.1515 3.49568 9.01114 3.58025C8.92692 3.63664 8.81463 3.69302 8.73042 3.72121C8.61813 3.77759 8.47777 3.83397 8.36548 3.91854C8.28126 3.97493 8.22512 4.03131 8.1409 4.08769C8.05669 4.14407 7.9444 4.20045 7.86018 4.25684C7.71982 4.3696 7.57946 4.48236 7.4391 4.59513C7.32681 4.6797 7.21452 4.70789 7.10224 4.79246C7.04609 4.82066 6.98995 4.90523 6.9338 4.93342C6.59694 5.18714 6.31622 5.44086 6.0355 5.75096C5.75478 6.03287 5.44598 6.31478 5.19333 6.62488C5.0249 6.79402 4.91261 6.99136 4.77225 7.1887C4.71611 7.24508 4.65996 7.30146 4.60382 7.35784C4.49153 7.47061 4.40732 7.61156 4.3231 7.72433C4.23888 7.86528 4.15467 8.00624 4.04238 8.14719C3.93009 8.34453 3.78973 8.54186 3.67744 8.76739C3.56515 8.99292 3.42479 9.19026 3.3125 9.41578C3.25636 9.50036 3.22829 9.61312 3.20022 9.72589C3.14407 9.86684 3.08793 10.0078 3.03178 10.1487C2.94757 10.3461 2.86335 10.5434 2.80721 10.7408C2.69492 11.0509 2.58263 11.3328 2.49841 11.6429C2.44227 11.812 2.4142 11.9812 2.38613 12.1503C2.35805 12.3195 2.30191 12.4886 2.24577 12.6577C2.24577 12.7141 2.24577 12.7987 2.24577 12.8551C2.21769 13.1088 2.18962 13.3625 2.13348 13.588C2.13348 13.6726 2.10541 13.7572 2.07733 13.8418C2.07733 13.9545 2.07733 14.0955 2.04926 14.2083C2.04926 14.321 2.02119 14.4338 1.99312 14.5465C1.99312 14.5465 2.02119 14.6029 2.04926 14.6029C2.04926 14.7721 2.04926 14.9412 2.04926 15.1104C2.04926 15.2231 2.04926 15.3359 2.04926 15.4487C2.04926 15.4487 1.96505 15.4768 1.96505 15.505C1.96505 15.646 1.96505 15.7588 1.96505 15.8997C1.96505 15.8997 2.02119 15.9279 2.04926 15.9561C2.04926 16.2098 2.04926 16.4635 2.04926 16.7172C2.04926 16.8018 2.04926 16.9146 2.04926 16.9992C2.04926 17.2529 2.10541 17.5066 2.18962 17.7321C2.18962 17.7885 2.18962 17.8731 2.21769 17.9295C2.27384 18.2114 2.32998 18.4651 2.38613 18.747C2.44227 18.9725 2.52649 19.1981 2.6107 19.4236C2.69492 19.7055 2.77914 19.9592 2.86335 20.2411C2.94757 20.4666 3.08793 20.6922 3.17214 20.9177C3.20022 21.0023 3.22829 21.0868 3.28443 21.1714C3.34058 21.3124 3.42479 21.4251 3.48094 21.5661C3.53708 21.707 3.6213 21.8198 3.67744 21.9608C3.73359 22.0453 3.76166 22.1581 3.8178 22.2427C3.90202 22.3836 3.98623 22.5246 4.09852 22.6655C4.18274 22.7783 4.26696 22.8911 4.35117 23.0038C4.49153 23.173 4.63189 23.3139 4.74418 23.4831C4.8284 23.6522 4.99683 23.765 5.08105 23.9059C5.24948 24.216 5.50213 24.3852 5.7267 24.6389C6.00742 24.949 6.31622 25.2591 6.65308 25.541C6.79344 25.6538 6.9338 25.7665 7.07416 25.8793C7.27067 26.0203 7.46717 26.1612 7.66368 26.3022C7.83211 26.4149 8.00054 26.5559 8.16897 26.6405C8.33741 26.7532 8.50584 26.8378 8.67427 26.9224C8.95499 27.0915 9.26379 27.2607 9.54451 27.4016C9.79715 27.5144 10.0498 27.6272 10.3025 27.7399C10.4147 27.7963 10.527 27.7963 10.6393 27.8245C10.8358 27.9091 11.0043 27.9936 11.2008 28.05C11.313 28.1064 11.4534 28.1346 11.5938 28.1628C11.8464 28.2192 12.0991 28.2755 12.3517 28.3319C12.5482 28.3601 12.7447 28.3883 12.9412 28.4447C13.1377 28.4729 13.3623 28.5293 13.5588 28.5575C13.6711 28.5575 13.7553 28.5575 13.8676 28.5575C13.9518 28.5575 14.036 28.5575 14.1203 28.5575C14.1203 28.5575 14.1764 28.6138 14.2045 28.642C14.2887 28.642 14.3729 28.642 14.4571 28.642C14.5694 28.642 14.6817 28.642 14.794 28.642C15.1308 28.642 15.4677 28.642 15.8046 28.642C15.9169 28.642 16.0292 28.642 16.1414 28.642C16.1976 28.642 16.2537 28.642 16.3099 28.642C16.3379 28.642 16.366 28.5856 16.3941 28.5575H16.5625C16.5625 28.5575 16.6748 28.5575 16.731 28.5575C16.759 28.5575 16.8152 28.5293 16.8432 28.5011C16.9836 28.5011 17.124 28.5011 17.2924 28.4729C17.4608 28.4729 17.6293 28.4165 17.7977 28.3883C18.0223 28.3319 18.2749 28.2755 18.4995 28.2192C18.7241 28.1628 18.9206 28.1064 19.1452 28.05C19.2574 28.0218 19.3697 27.9654 19.482 27.9091C19.5943 27.8527 19.7347 27.8245 19.847 27.7963C19.9592 27.7681 20.0435 27.7117 20.1558 27.6553C20.268 27.599 20.3803 27.5708 20.5207 27.5426C20.6049 27.5426 20.661 27.4862 20.7172 27.458C20.8295 27.4016 20.9698 27.3452 21.0821 27.2889C21.1663 27.2607 21.2225 27.2043 21.3067 27.1479C21.3067 27.1479 21.3629 27.1197 21.3909 27.0915C21.5313 27.0069 21.6997 26.9506 21.8401 26.866C22.0085 26.7814 22.1489 26.6687 22.2892 26.5841C22.4296 26.4995 22.57 26.4431 22.6822 26.3586C22.8507 26.2458 22.991 26.1048 23.1595 25.9921C23.2998 25.8793 23.4683 25.7947 23.6086 25.682C23.749 25.5692 23.8613 25.4564 24.0016 25.3155C24.1139 25.2027 24.2262 25.1182 24.3385 25.0054C24.4508 24.9208 24.535 24.8081 24.6473 24.7235C24.7876 24.5825 24.928 24.4698 25.0403 24.3288C25.1807 24.1879 25.2929 24.0187 25.4333 23.8778C25.5737 23.6804 25.7421 23.5113 25.8825 23.3139C25.9386 23.2294 26.0228 23.1448 26.079 23.0602C26.1912 22.8911 26.3316 22.6937 26.4439 22.5246C26.5562 22.3554 26.6404 22.1581 26.7527 21.9608C26.8369 21.7916 26.9492 21.6507 27.0615 21.4815C27.1457 21.3688 27.2018 21.2278 27.258 21.0868C27.3422 20.9177 27.3983 20.7204 27.4826 20.5512C27.5949 20.2975 27.6791 20.0438 27.7914 19.7619C27.9036 19.48 27.9879 19.1981 28.1001 18.9161C28.1563 18.7188 28.1844 18.5497 28.2124 18.3523C28.2686 18.0422 28.3247 17.7321 28.3809 17.422C28.4089 17.2811 28.4651 17.1401 28.4932 16.9992V16.9428C28.4932 16.6891 28.4932 16.4635 28.5212 16.2098C28.5212 16.1816 28.5774 16.1534 28.5774 16.097C28.5774 15.5896 28.5774 15.0822 28.5774 14.5747C28.5774 14.4056 28.5774 14.2364 28.5774 14.0673C28.5493 13.8136 28.4932 13.588 28.437 13.3343C28.437 13.2779 28.437 13.2216 28.437 13.1652C28.3809 12.8551 28.3247 12.545 28.2405 12.2631C28.2405 12.1503 28.1563 12.0375 28.1282 11.9248C28.1282 11.8402 28.1282 11.7838 28.0721 11.6993C27.9598 11.3892 27.8756 11.0509 27.7633 10.7408C27.7071 10.5434 27.651 10.3461 27.5668 10.1487C27.5106 10.0078 27.4264 9.89503 27.3703 9.78227C27.2861 9.61312 27.2299 9.41578 27.1457 9.24664C27.0896 9.10568 27.0053 8.99292 26.9492 8.88016C26.9492 8.82377 26.9492 8.7392 26.9492 8.71101C27.0896 8.57006 27.258 8.4291 27.3983 8.25995C27.6229 8.03443 27.8756 7.83709 28.1001 7.61156C28.1844 7.52699 28.2686 7.47061 28.3528 7.35784C28.4089 7.44242 28.4932 7.52699 28.5493 7.61156C28.6335 7.75252 28.7177 7.86528 28.7739 8.00624C28.83 8.119 28.9142 8.25995 28.9704 8.40091C29.0546 8.54186 29.1388 8.71101 29.195 8.85196C29.2511 8.93654 29.2511 9.0493 29.3072 9.13387C29.3634 9.30302 29.4476 9.47217 29.5318 9.6695C29.5599 9.75408 29.616 9.86684 29.6441 9.95141C29.6722 10.0642 29.7283 10.1769 29.7564 10.2897C29.8125 10.4588 29.8687 10.628 29.8968 10.7971C29.9529 10.9945 30.009 11.1918 30.0652 11.3892C30.1213 11.6993 30.2336 11.9812 30.2617 12.2913C30.2617 12.6014 30.374 12.9115 30.4301 13.1934C30.374 13.3061 30.374 13.4189 30.4863 13.4471C30.4863 13.5035 30.4863 13.5599 30.4863 13.6162C30.4863 13.7008 30.4863 13.8136 30.4863 13.8981C30.4863 13.9827 30.4863 14.0955 30.4863 14.1801C30.4863 14.4338 30.4863 14.6875 30.4863 14.913C30.4863 14.913 30.5424 14.9412 30.5705 14.9694C30.5705 15.3641 30.5705 15.7588 30.5705 16.1534C30.4301 16.2098 30.4863 16.3226 30.5143 16.4353C30.5143 16.4353 30.5143 16.4917 30.5143 16.5199C30.5143 16.6609 30.5143 16.7736 30.4863 16.9146L30.5986 17.1401Z" fill="#DB5115"/>
<path d="M35.0058 2.17063C35.0058 2.17063 34.8374 2.22701 34.7532 2.2552C34.5567 2.36796 34.3602 2.48073 34.1637 2.59349C33.9952 2.67806 33.8549 2.76264 33.6864 2.84721C33.6584 2.84721 33.6022 2.90359 33.5742 2.93178C33.3496 3.07274 33.125 3.21369 32.9285 3.35465C32.7601 3.46741 32.5916 3.58017 32.4232 3.69294C32.3109 3.77751 32.1706 3.8057 32.0583 3.89027C31.946 3.97485 31.8618 4.05942 31.7495 4.14399C31.6091 4.22857 31.4407 4.31314 31.3003 4.39771C31.16 4.48228 31.0477 4.62324 30.9073 4.70781C30.6827 4.82058 30.5143 4.96153 30.3178 5.13068C30.1774 5.27163 29.9809 5.3562 29.8125 5.46897C29.616 5.63811 29.4195 5.80726 29.223 5.97641C29.1107 6.06098 28.9703 6.14555 28.858 6.25832C28.7177 6.37108 28.5773 6.51203 28.437 6.6248C28.3247 6.70937 28.2124 6.79394 28.1001 6.87852C27.9597 7.01947 27.8194 7.21681 27.6509 7.30138C27.4825 7.38595 27.3702 7.52691 27.2299 7.66786C27.0334 7.8652 26.8649 8.03435 26.6684 8.23168C26.5842 8.31626 26.5 8.37264 26.3877 8.42902C26.3877 8.42902 26.3316 8.4854 26.3316 8.51359C26.3316 8.56998 26.3316 8.59817 26.2473 8.59817C26.2473 8.59817 26.2193 8.59817 26.1912 8.62636C26.1351 8.76731 25.9947 8.7955 25.9105 8.90827C25.9105 8.93646 25.8543 8.96465 25.8263 8.99284C25.8263 9.02103 25.7701 9.04922 25.742 9.07741C25.742 9.07741 25.6859 9.1056 25.6578 9.13379C25.6298 9.30294 25.4613 9.35932 25.3771 9.50028C25.2368 9.66942 25.0683 9.81038 24.928 9.95133C24.8999 9.97952 24.8718 10.0077 24.8437 10.0641C24.563 10.3742 24.2823 10.6561 24.0296 10.9662C23.9174 11.1072 23.777 11.2199 23.6928 11.3891C23.5805 11.5582 23.4401 11.6992 23.2998 11.8401C23.1875 11.9811 23.0471 12.1502 22.9348 12.2912C22.8225 12.4321 22.7383 12.6013 22.6541 12.7422C22.626 12.7986 22.5699 12.8268 22.5138 12.8832C22.4015 13.0241 22.2892 13.1651 22.1769 13.3061C22.0646 13.447 22.0085 13.6162 21.8962 13.7571C21.7558 13.9263 21.6155 14.0954 21.4751 14.2646C21.4189 14.3209 21.3909 14.4055 21.3347 14.4619C21.2224 14.6874 21.054 14.8848 20.8856 15.0821C20.8294 15.1667 20.7733 15.2512 20.7171 15.3358C20.6049 15.505 20.5206 15.6459 20.4084 15.8151C20.2961 16.0124 20.1557 16.2097 20.0434 16.4353C19.9873 16.548 19.9031 16.6326 19.8188 16.7172C19.7346 16.8581 19.6504 17.0273 19.5662 17.1682C19.4539 17.3656 19.3416 17.5629 19.2013 17.7602C19.1451 17.873 19.0609 17.9858 18.9767 18.0985C18.8644 18.2677 18.7802 18.4368 18.696 18.606C18.6398 18.7187 18.5556 18.8033 18.4995 18.9161C18.3872 19.0852 18.3029 19.2544 18.1907 19.4517C18.1345 19.5645 18.0503 19.649 17.9942 19.7618C17.9661 19.8182 17.938 19.8746 17.8819 19.9591C17.7696 20.1847 17.6292 20.4102 17.5169 20.6357C17.4608 20.7485 17.3766 20.833 17.3204 20.9458C17.2362 21.0868 17.1801 21.2277 17.0958 21.3969C17.0397 21.5096 16.9555 21.5942 16.8993 21.707C16.8713 21.7633 16.8151 21.8479 16.7871 21.9043C16.6748 22.1298 16.5344 22.3836 16.4221 22.6091C16.3379 22.7782 16.2256 22.9192 16.1133 23.0883C16.0291 23.2293 15.973 23.3702 15.9168 23.5112C15.8607 23.5958 15.8045 23.6521 15.7203 23.7085C15.7203 23.7085 15.608 23.7085 15.608 23.6521C15.4957 23.4266 15.3835 23.2011 15.2431 22.9756C15.1869 22.8628 15.1027 22.7782 15.0466 22.6655C14.9904 22.5527 14.9343 22.4399 14.8501 22.299C14.7097 22.0453 14.5694 21.7915 14.4009 21.5378C14.3167 21.3969 14.2325 21.2841 14.1483 21.1713C14.0079 20.9458 13.8676 20.7485 13.7272 20.5229C13.643 20.4102 13.5588 20.2974 13.4746 20.1847C13.3623 20.0155 13.25 19.8464 13.1377 19.6772C13.1377 19.6772 13.1096 19.649 13.0815 19.6208C12.9412 19.4235 12.8008 19.2262 12.6605 19.0288C12.5201 18.8597 12.3797 18.6905 12.2394 18.5214C12.1271 18.3804 12.0148 18.2395 11.9025 18.0985C11.7902 17.9576 11.706 17.8166 11.6218 17.6475C11.5656 17.5629 11.5095 17.4501 11.4253 17.3656C11.3411 17.281 11.2569 17.1964 11.1726 17.1118C10.9761 16.8863 10.7516 16.6608 10.5831 16.4071C10.3866 16.1252 10.134 15.9278 9.93747 15.6741C9.79711 15.505 9.68482 15.3358 9.54446 15.1949C9.29181 14.9411 9.03916 14.6874 8.78651 14.4337C8.56194 14.2082 8.36543 13.9545 8.11278 13.7853C7.74785 13.5034 7.46713 13.1651 7.13026 12.855C7.01797 12.7704 6.90568 12.6577 6.7934 12.5449C7.01797 12.3194 7.21448 12.122 7.43905 11.9247C7.83206 11.6146 8.14086 11.2481 8.50579 10.938C8.81459 10.6843 9.06723 10.4024 9.37603 10.1487C9.43217 10.0923 9.46024 10.0359 9.51639 10.0077C9.68482 9.86676 9.82518 9.7258 9.99361 9.58485C9.99361 9.58485 10.1059 9.58485 10.134 9.58485C10.2743 9.69761 10.3585 9.83857 10.527 9.89495C10.6112 9.89495 10.6673 10.0359 10.7235 10.0923C11.0042 10.346 11.2569 10.6279 11.5656 10.8534C12.0148 11.2199 12.4078 11.6428 12.8008 12.0375C13.0254 12.263 13.25 12.5167 13.4465 12.7422C13.5588 12.855 13.643 12.9678 13.7272 13.0805C13.8114 13.1933 13.9237 13.3061 14.0079 13.4188C14.1764 13.588 14.3448 13.7571 14.4851 13.9545C14.5974 14.0954 14.6816 14.2364 14.7659 14.4055C14.822 14.4901 14.8782 14.5465 14.9343 14.631C15.0747 14.8284 15.2431 14.9693 15.3273 15.223C15.3273 15.2512 15.3835 15.3076 15.4396 15.3076C15.5519 15.3358 15.608 15.2794 15.6642 15.1949C15.7203 15.1385 15.7484 15.0539 15.8045 14.9975C15.9449 14.8284 16.0572 14.6592 16.1695 14.4619C16.2818 14.2927 16.4221 14.1236 16.5344 13.9826C16.7309 13.7289 16.8993 13.447 17.0958 13.1933C17.2643 12.996 17.4327 12.7986 17.6011 12.5731C17.7976 12.2912 17.9942 12.0375 18.1907 11.7556C18.2749 11.671 18.3591 11.5864 18.4433 11.4736C18.5837 11.3045 18.696 11.1354 18.8363 10.9662C19.0047 10.7689 19.1732 10.5997 19.3135 10.4306C19.4539 10.2896 19.5381 10.0923 19.6785 9.95133C19.8469 9.754 20.0434 9.55666 20.2118 9.35932C20.7171 8.82369 21.2224 8.28807 21.7277 7.78063C21.9523 7.5551 22.1488 7.32957 22.4015 7.13224C22.6541 6.9349 22.8506 6.70937 23.1033 6.51203C23.2717 6.37108 23.4121 6.25832 23.5805 6.11736C23.7209 6.0046 23.8612 5.89183 24.0016 5.77907C24.1419 5.66631 24.2823 5.52535 24.4507 5.44078C24.563 5.3562 24.6753 5.32801 24.7876 5.24344C24.928 5.15887 25.0402 5.0461 25.1806 4.96153C25.2929 4.87696 25.4333 4.82058 25.5455 4.736C25.5736 4.736 25.6298 4.67962 25.6578 4.65143C25.9105 4.51048 26.1631 4.36952 26.4158 4.22857C26.5842 4.14399 26.7246 4.03123 26.893 3.91847C26.9772 3.86208 27.0614 3.86208 27.1456 3.8057C27.2299 3.77751 27.3141 3.72113 27.3983 3.66475C27.4825 3.63656 27.5667 3.58017 27.6509 3.55198C27.7632 3.52379 27.8475 3.4956 27.9597 3.43922C28.1562 3.35465 28.3247 3.27007 28.5212 3.21369C28.5773 3.21369 28.6335 3.15731 28.6896 3.12912C28.858 3.07274 29.0265 3.01635 29.223 2.95997C29.4195 2.90359 29.616 2.81902 29.8125 2.73444C29.9529 2.67806 30.1213 2.64987 30.2617 2.62168C30.4301 2.5653 30.5704 2.53711 30.7389 2.48073C30.9073 2.42434 31.1038 2.39615 31.2722 2.36796C31.4968 2.31158 31.6933 2.28339 31.9179 2.22701C31.9741 2.22701 32.0302 2.22701 32.0863 2.22701C32.3951 2.19882 32.7039 2.17063 33.0408 2.14243C33.1531 2.14243 33.2654 2.14243 33.3776 2.14243C33.4899 2.14243 33.6022 2.14243 33.7145 2.14243C33.7426 2.14243 33.7707 2.08605 33.7987 2.05786C33.883 2.05786 33.9672 2.05786 34.0514 2.05786C34.3882 2.05786 34.7251 2.05786 35.062 2.05786C35.062 2.14243 35.062 2.17063 35.062 2.22701L35.0058 2.17063Z" fill="#DB5115"/>
</svg>
